<?xml version="1.0" encoding="UTF-8" standalone="no"?>
<!-- Created with Inkscape (http://www.inkscape.org/) -->

<svg
   width="210mm"
   height="297mm"
   viewBox="0 0 210 297"
   version="1.1"
   id="svg1"
   inkscape:version="1.4.2 (ebf0e940, 2025-05-08)"
   sodipodi:docname="bolsoys4.svg"
   xmlns:inkscape="http://www.inkscape.org/namespaces/inkscape"
   xmlns:sodipodi="http://sodipodi.sourceforge.net/DTD/sodipodi-0.dtd"
   xmlns="http://www.w3.org/2000/svg"
   xmlns:svg="http://www.w3.org/2000/svg">
  <sodipodi:namedview
     id="namedview1"
     pagecolor="#ffffff"
     bordercolor="#000000"
     borderopacity="0.25"
     inkscape:showpageshadow="2"
     inkscape:pageopacity="0.0"
     inkscape:pagecheckerboard="0"
     inkscape:deskcolor="#d1d1d1"
     inkscape:document-units="mm"
     inkscape:zoom="0.95139393"
     inkscape:cx="288.52402"
     inkscape:cy="585.45675"
     inkscape:window-width="1712"
     inkscape:window-height="1073"
     inkscape:window-x="0"
     inkscape:window-y="34"
     inkscape:window-maximized="0"
     inkscape:current-layer="layer1" />
  <defs
     id="defs1" />
  <g
     inkscape:label="Layer 1"
     inkscape:groupmode="layer"
     id="layer1">
    <g
       id="g7">
      <rect
         style="fill:#000000;fill-opacity:1;stroke:none;stroke-width:1.1011;stroke-dasharray:none;stroke-opacity:1"
         id="rect1-99-2-2-3-8-0-5-8"
         width="28.976398"
         height="27.527576"
         x="169.49396"
         y="146.71532" />
      <g
         id="g26"
         transform="matrix(1.385368,0,0,1.385368,-13.59128,-152.37624)"
         style="fill:#cccccc">
        <path
           style="font-weight:bold;font-size:13.2459px;font-family:'Bailsun Serif';-inkscape-font-specification:'Bailsun Serif, Bold';fill:#cccccc;stroke-width:0.79481"
           d="m 142.5573,225.81868 c -1.69,0 -2.60351,0.85641 -2.60351,2.13533 0,2.63776 4.07654,2.55783 4.07654,4.43052 0,0.71939 -0.47959,1.11905 -1.37026,1.11905 -1.62148,0 -2.31804,-1.22182 -2.75195,-3.22012 h -0.12561 l 0.13703,3.32289 c 0.37682,-0.0914 0.71939,-0.10277 0.89067,-0.10277 0.69655,0 1.13047,0.22838 1.97546,0.22838 1.67858,0 2.6606,-0.90209 2.6606,-2.21526 0,-2.60351 -4.13363,-2.64918 -4.13363,-4.45336 0,-0.63946 0.43392,-1.01629 1.24466,-1.01629 1.3931,0 1.96405,1.18757 2.10107,2.75195 h 0.11419 l 0.17128,-2.98032 c -0.34256,0.0799 -0.61662,0.11419 -0.87925,0.11419 -0.51385,0 -0.83358,-0.11419 -1.50729,-0.11419 z"
           id="path13-0-9" />
        <path
           style="font-weight:bold;font-size:13.2459px;font-family:'Bailsun Serif';-inkscape-font-specification:'Bailsun Serif, Bold';fill:#cccccc;stroke-width:0.79481"
           d="m 138.08234,227.47722 h 0.13702 c 1.15331,-0.81074 1.4502,-1.6329 1.4502,-2.28377 0,-0.62804 -0.34257,-1.0277 -0.91351,-1.0277 -0.54811,0 -0.92493,0.37682 -0.92493,0.87925 0,0.83358 0.71939,0.71939 0.71939,1.30175 0,0.27406 -0.14844,0.63946 -0.46817,1.13047 z"
           id="path12-2-1" />
      </g>
    </g>
    <g
       id="g4"
       transform="translate(-0.06180048)">
      <rect
         style="fill:#cccccc;fill-opacity:1;stroke:none;stroke-width:0.855563;stroke-dasharray:none;stroke-opacity:1"
         id="rect1-99-2-2-3-8-7-6"
         width="22.514784"
         height="21.389046"
         x="91.592583"
         y="152.85385" />
      <path
         style="font-weight:bold;font-size:13.2459px;font-family:'Bailsun Serif';-inkscape-font-specification:'Bailsun Serif, Bold';fill:#000000;stroke-width:1.08312"
         d="m 102.77217,160.69082 c -2.30302,0 -3.547898,1.16705 -3.547898,2.90989 0,3.59457 5.555248,3.48564 5.555248,6.03763 0,0.98033 -0.65357,1.52497 -1.86732,1.52497 -2.20965,0 -3.15886,-1.66503 -3.750164,-4.38818 h -0.171174 l 0.186735,4.52822 c 0.513507,-0.12453 0.980343,-0.13997 1.213753,-0.13997 0.9492,0 1.54052,0.31122 2.69201,0.31122 2.28748,0 3.6257,-1.22931 3.6257,-3.01881 0,-3.5479 -5.63303,-3.61013 -5.63303,-6.06876 0,-0.87141 0.5913,-1.38494 1.69614,-1.38494 1.89843,0 2.67647,1.61834 2.86319,3.75019 h 0.15561 l 0.23341,-4.06139 c -0.46682,0.1088 -0.84029,0.15561 -1.19819,0.15561 -0.70024,0 -1.13595,-0.15561 -2.05402,-0.15561 z"
         id="path8-1-4" />
    </g>
    <g
       id="g3"
       transform="translate(0.03141975)">
      <rect
         style="fill:#000000;fill-opacity:1;stroke:none;stroke-width:0.955745;stroke-dasharray:none;stroke-opacity:1"
         id="rect1-6-2-7-0-4-7-3"
         width="25.151171"
         height="23.893614"
         x="65.005852"
         y="150.34929" />
      <path
         style="font-weight:bold;font-size:13.2459px;font-family:'Bailsun Serif';-inkscape-font-specification:'Bailsun Serif, Bold';fill:#cccccc;stroke-width:1.08453"
         d="m 78.477378,171.14371 c -1.35558,0 -1.713942,-0.59208 -1.713942,-1.44906 v -6.94924 c 0,-1.18418 0.467442,-1.57371 1.324399,-1.57371 v -0.18696 H 72.89929 v 0.18696 c 0.856972,0 1.3244,0.38953 1.3244,1.57371 v 6.94924 c 0,1.19975 -0.467428,1.58929 -1.3244,1.58929 v 0.18698 h 9.068272 l 0.296046,-4.01997 h -0.155815 c -0.685572,2.44627 -1.495795,3.69276 -3.630415,3.69276 z"
         id="path7-8-8" />
    </g>
    <g
       id="g2"
       transform="translate(0.10270929)">
      <rect
         style="fill:#cccccc;fill-opacity:1;stroke:none;stroke-width:0.876067;stroke-dasharray:none;stroke-opacity:1"
         id="rect1-9-5-1-7-2-3-2"
         width="23.054365"
         height="21.901648"
         x="40.537857"
         y="152.34126" />
      <path
         style="font-weight:bold;font-size:13.2459px;font-family:'Bailsun Serif';-inkscape-font-specification:'Bailsun Serif, Bold';fill:#000000;stroke-width:1.07919"
         d="m 52.072786,160.73994 c -3.085402,0 -5.380072,2.12411 -5.380072,5.38006 0,3.25594 2.279166,5.36457 5.380072,5.36457 3.085401,0 5.364567,-2.10863 5.364567,-5.36457 0,-3.25595 -2.294672,-5.38006 -5.364567,-5.38006 z"
         id="path5-5-7" />
      <path
         style="font-weight:bold;font-size:13.2459px;font-family:'Bailsun Serif';-inkscape-font-specification:'Bailsun Serif, Bold';fill:#cccccc;stroke-width:1.07919"
         d="m 51.855723,161.05003 c 1.78302,0 2.930355,2.24815 2.930355,5.7832 0,3.16292 -1.13183,4.34125 -2.496229,4.34125 -1.814029,0 -2.945859,-2.26365 -2.945859,-5.75218 0,-3.14741 1.13183,-4.37227 2.511733,-4.37227 z"
         id="path6-5-1" />
    </g>
    <g
       id="g1">
      <rect
         style="fill:#000000;fill-opacity:1;stroke:none;stroke-width:1.10122;stroke-dasharray:none;stroke-opacity:1"
         id="rect1-90-9-2-0-9-6"
         width="28.979477"
         height="27.530506"
         x="10.318749"
         y="146.71242" />
      <path
         style="font-weight:bold;font-size:13.2459px;font-family:'Bailsun Serif';-inkscape-font-specification:'Bailsun Serif, Bold';fill:#cccccc;stroke-width:1.10122"
         d="m 29.894955,168.48551 c 0,-1.93015 -1.471357,-2.87943 -4.192574,-2.87943 v -0.0316 c 2.436439,-0.0633 3.543911,-0.88598 3.543911,-2.4048 0,-1.48718 -1.249862,-2.38898 -4.240036,-2.38898 h -5.284225 v 0.18984 c 0.870157,0 1.344788,0.39554 1.344788,1.59793 v 7.07201 c 0,1.20239 -0.474631,1.59792 -1.344788,1.59792 v 0.18985 h 5.458257 c 3.24331,0 4.714667,-0.96508 4.714667,-2.94271 z"
         id="path4-5-9" />
      <path
         style="font-weight:bold;font-size:13.2459px;font-family:'Bailsun Serif';-inkscape-font-specification:'Bailsun Serif, Bold';fill:#000000;stroke-width:1.10122"
         d="m 26.414328,163.21711 c 0,1.55045 -0.838514,2.19913 -2.15166,2.19913 h -0.61702 v -4.31916 h 0.664484 c 1.40807,0 2.104196,0.6645 2.104196,2.12003 z"
         id="path3-6-3" />
      <path
         style="font-weight:bold;font-size:13.2459px;font-family:'Bailsun Serif';-inkscape-font-specification:'Bailsun Serif, Bold';fill:#000000;stroke-width:1.10122"
         d="m 27.06299,168.65956 c 0,1.69284 -0.822693,2.45225 -2.104197,2.45225 -0.91762,0 -1.313145,-0.39553 -1.313145,-1.23404 v -4.01854 h 0.61702 c 1.866881,0 2.800322,0.72776 2.800322,2.80033 z"
         id="text5-9-1-81-7-2-7-1" />
    </g>
    <g
       id="g6"
       transform="translate(-0.05108595)">
      <rect
         style="fill:#cccccc;fill-opacity:1;stroke:none;stroke-width:0.860144;stroke-dasharray:none;stroke-opacity:1"
         id="rect1-1-3-6-9-9-4-4"
         width="22.635366"
         height="21.503599"
         x="145.56734"
         y="152.73929" />
      <path
         style="font-weight:bold;font-size:13.2459px;font-family:'Bailsun Serif';-inkscape-font-specification:'Bailsun Serif, Bold';fill:#000000;stroke-width:1.08892"
         d="m 160.40494,162.16701 c 0,0.4224 -0.17208,0.92301 -0.43804,1.3767 l -1.86165,3.28529 -2.29972,-4.22395 c -0.50061,-0.92301 -0.40675,-1.48621 1.0951,-1.48621 v -0.18772 h -5.77273 v 0.18772 c 0.70399,0.047 1.14204,0.43805 1.75216,1.48621 l 2.76902,4.94358 v 2.12762 c 0,1.2046 -0.46931,1.59573 -1.32975,1.59573 v 0.18772 h 5.2252 v -0.18772 c -0.86045,0 -1.31413,-0.39113 -1.31413,-1.59573 v -2.42486 l 2.11197,-3.72333 c 0.93866,-1.68958 1.39234,-2.40922 2.2997,-2.40922 v -0.18772 h -3.53559 v 0.18772 c 0.98559,0 1.29846,0.42239 1.29846,1.04817 z"
         id="path11-1-9" />
    </g>
    <text
       xml:space="preserve"
       style="font-weight:bold;font-size:16.091px;font-family:'Bailsun Serif';-inkscape-font-specification:'Bailsun Serif, Bold';text-align:start;writing-mode:lr-tb;direction:ltr;text-anchor:start;fill:#000000;fill-opacity:1;stroke:#000000;stroke-width:0.249713;stroke-dasharray:none;stroke-opacity:1"
       x="8.8181343"
       y="208.18004"
       id="text1-6-5"
       transform="scale(1.1264426,0.88775048)"><tspan
         sodipodi:role="line"
         id="tspan1-1-9"
         style="fill:#000000;fill-opacity:1;stroke:#000000;stroke-width:0.249713;stroke-dasharray:none;stroke-opacity:1"
         x="8.8181343"
         y="208.18004">C   H   O   C   O   L   A   T   E</tspan></text>
    <g
       id="g5"
       transform="translate(-0.07018566)">
      <rect
         style="fill:#000000;fill-opacity:1;stroke:none;stroke-width:1.09387;stroke-dasharray:none;stroke-opacity:1"
         id="rect1-3-7-3-9-3-9-1"
         width="28.786005"
         height="27.346704"
         x="115.45809"
         y="146.89621" />
      <path
         style="font-weight:bold;font-size:13.2459px;font-family:'Bailsun Serif';-inkscape-font-specification:'Bailsun Serif, Bold';fill:#cccccc;stroke-width:1.09387"
         d="m 129.85894,160.55628 c -3.12737,0 -5.45324,2.153 -5.45324,5.45324 0,3.30023 2.31017,5.43753 5.45324,5.43753 3.12736,0 5.43752,-2.1373 5.43752,-5.43753 0,-3.30024 -2.32587,-5.45324 -5.43752,-5.45324 z"
         id="path14-0-0" />
      <path
         style="font-weight:bold;font-size:13.2459px;font-family:'Bailsun Serif';-inkscape-font-specification:'Bailsun Serif, Bold';fill:#000000;stroke-width:1.09387"
         d="m 129.63893,160.8706 c 1.80727,0 2.97021,2.27873 2.97021,5.86185 0,3.20594 -1.14723,4.40031 -2.53017,4.40031 -1.83871,0 -2.98594,-2.29444 -2.98594,-5.83042 0,-3.19022 1.14723,-4.43174 2.5459,-4.43174 z"
         id="path15-4-9" />
    </g>
  </g>
</svg>
