<?xml version="1.0" encoding="UTF-8" standalone="no"?>
<!-- Created with Inkscape (http://www.inkscape.org/) -->

<svg
   width="85.407913mm"
   height="14.76881mm"
   viewBox="0 0 85.407912 14.76881"
   version="1.1"
   id="svg1"
   xmlns="http://www.w3.org/2000/svg"
   xmlns:svg="http://www.w3.org/2000/svg">
  <defs
     id="defs1" />
  <g
     id="g1"
     transform="matrix(0,0.48141721,-0.5064261,0,177.62413,-46.456082)">
    <path
       id="rect1-90-9-2-0-1"
       style="stroke-width:0.79481"
       d="m 96.498589,182.17969 6.807531,-0.0129 c 0,0 -3.3048,4.21083 -3.306946,5.75156 -0.662648,1.59723 -0.376763,2.75809 0.772666,3.73819 -0.27057,1.89091 0.47675,2.43749 1.84855,2.65814 0.55314,2.10676 1.03181,2.18892 2.88825,2.04848 0.58241,2.01052 1.39337,2.16057 3.1681,1.56542 0.97406,1.4368 2.13153,1.68401 3.34353,0.99671 0.74462,1.57795 2.54088,0.95021 3.01342,0.34827 1.23365,0.50663 2.38093,-0.60929 2.38093,-0.60929 v 3.38565 H 96.498589 Z" />
  </g>
  <path
     d="m 1.4224844,14.763541 c 0.5156368,0 0.78924,-0.294649 1.0154888,-0.599822 l -0.073662,-0.08419 c -0.1368016,0.110494 -0.315696,0.189418 -0.52616,0.189418 -0.6892696,0 -1.16281369,-0.810286 -1.16281369,-1.441678 0,-0.310435 0.1262784,-0.584038 0.44197449,-0.584038 0.2262488,0 0.5472064,0.147325 0.9365648,0.631392 0.13154,0.16311 0.342004,0.0684 0.3104344,-0.13154 L 2.269602,12.12748 C 2.1275388,12.02751 1.822366,11.948585 1.5487628,11.948585 c -0.77871689,0 -1.40484729,0.6577 -1.40484729,1.494295 0,0.75767 0.5156368,1.320661 1.27330729,1.320661 z M 12.28766,12.964074 v 1.720543 h 0.684008 v -1.673188 c 0,-0.678747 -0.299911,-1.062844 -0.726101,-1.062844 -0.352527,0 -0.705054,0.273604 -0.936565,0.626131 v -1.620573 l -0.684008,0.105232 v 3.630504 h 0.684008 v -1.962577 c 0.184156,-0.194679 0.39462,-0.315696 0.594561,-0.315696 0.26308,0 0.384097,0.215726 0.384097,0.55773 z m 10.096978,1.799467 c 0.78924,0 1.357493,-0.615607 1.357493,-1.452201 0,-0.805025 -0.531422,-1.362755 -1.252261,-1.362755 -0.78924,0 -1.389062,0.673485 -1.389062,1.489033 0,0.757671 0.520898,1.331185 1.28383,1.331185 z m 0.473544,-0.305172 c -0.584038,0 -1.257522,-0.994443 -1.257522,-1.678451 0,-0.315696 0.142063,-0.510375 0.399881,-0.510375 0.578776,0 1.252261,0.999704 1.252261,1.683712 0,0.310434 -0.142063,0.505114 -0.39462,0.505114 z m 11.222967,0.305172 c 0.515637,0 0.78924,-0.294649 1.015489,-0.599822 l -0.07366,-0.08419 c -0.136801,0.110494 -0.315696,0.189418 -0.52616,0.189418 -0.689269,0 -1.162813,-0.810286 -1.162813,-1.441678 0,-0.310435 0.126278,-0.584038 0.441974,-0.584038 0.226249,0 0.547207,0.147325 0.936565,0.631392 0.13154,0.16311 0.342004,0.0684 0.310434,-0.13154 l -0.09471,-0.615607 c -0.142064,-0.09997 -0.447236,-0.178895 -0.72084,-0.178895 -0.778716,0 -1.404847,0.6577 -1.404847,1.494295 0,0.75767 0.515637,1.320661 1.273307,1.320661 z m 10.244313,0 c 0.78924,0 1.357493,-0.615607 1.357493,-1.452201 0,-0.805025 -0.531421,-1.362755 -1.252261,-1.362755 -0.78924,0 -1.389062,0.673485 -1.389062,1.489033 0,0.757671 0.520898,1.331185 1.28383,1.331185 z m 0.473544,-0.305172 c -0.584037,0 -1.257522,-0.994443 -1.257522,-1.678451 0,-0.315696 0.142063,-0.510375 0.399882,-0.510375 0.578776,0 1.25226,0.999704 1.25226,1.683712 0,0.310434 -0.142063,0.505114 -0.39462,0.505114 z m 9.081498,0.226248 h 0.684008 v -3.735736 l -0.684008,0.110494 z m 10.565254,0 h 0.689269 l -0.13154,-0.710316 0.01052,-0.899733 c 0.01052,-0.857641 -0.410405,-1.125983 -0.941827,-1.125983 -0.342004,0 -0.778717,0.110494 -0.999704,0.215726 l -0.08418,0.536683 c -0.03157,0.215726 0.173632,0.310435 0.320957,0.147325 0.484067,-0.552468 0.699793,-0.741886 0.857641,-0.741886 0.09997,0 0.157848,0.07366 0.157848,0.420928 v 0.363051 l -0.55773,0.257818 C 62.998819,13.511281 62.741,13.763837 62.741,14.137411 c 0,0.326219 0.199941,0.610346 0.662962,0.610346 0.436713,0 0.752409,-0.257819 0.936565,-0.578776 z m -1.047059,-0.831332 c 0,-0.231511 0.189418,-0.436713 0.636654,-0.641916 l 0.289388,-0.136801 v 0.947088 c -0.13154,0.147325 -0.342004,0.220987 -0.510375,0.220987 -0.257819,0 -0.415667,-0.173633 -0.415667,-0.389358 z m 10.612609,0.910256 c 0.357788,0 0.741885,-0.142063 1.004965,-0.273603 v -0.594561 c 0,-0.189417 -0.205202,-0.236772 -0.289388,-0.07892 -0.268341,0.499852 -0.484067,0.773456 -0.584037,0.773456 -0.05262,0 -0.08945,-0.03157 -0.08945,-0.384097 v -1.994147 h 1.026012 v -0.184156 h -1.026012 v -0.75767 l -0.947088,0.836594 v 0.105232 h 0.273604 l -0.01052,1.688974 c -0.0053,0.673485 0.257819,0.868164 0.641916,0.868164 z m 10.286398,0 c 0.510375,0 0.836594,-0.26308 1.078628,-0.59456 l -0.07366,-0.08419 c -0.184156,0.152586 -0.368312,0.220987 -0.584037,0.220987 -0.631392,0 -0.941827,-0.52616 -1.041797,-1.010227 h 1.268045 c 0.226249,0 0.463021,-0.01052 0.463021,-0.399882 0,-0.499852 -0.384097,-0.941826 -1.015489,-0.941826 -0.778716,0 -1.368016,0.673485 -1.368016,1.489033 0,0.768193 0.531422,1.320661 1.273308,1.320661 z m -0.6577,-1.825775 c 0,-0.473544 0.178894,-0.783978 0.49459,-0.783978 0.410405,0 0.55773,0.552468 0.55773,0.962873 h -1.047059 c -0.0053,-0.06314 -0.0053,-0.121017 -0.0053,-0.178895 z"
     id="text28"
     style="font-weight:bold;font-size:5.2616px;font-family:Gyst;-inkscape-font-specification:'Gyst, Bold';stroke-width:0.355507"
     aria-label="c       h       o        c       o       l       a       t       e" />
  <g
     id="g40"
     transform="translate(35.997654,-42.42323)">
    <rect
       style="fill:#000000;fill-opacity:1;stroke:none;stroke-width:0.392576;stroke-dasharray:none;stroke-opacity:1"
       id="rect1-90-9-2-0-7"
       width="10.069337"
       height="10.069337"
       x="28.545868"
       y="42.423229" />
    <path
       d="m 33.624546,44.448555 c -1.436559,0 -1.808028,0.82567 -1.808028,1.387084 0,0.75956 0.685192,1.370416 1.874068,2.105207 0.924682,0.577926 1.502532,0.941307 1.502532,1.46144 0,0.255939 -0.140289,0.387924 -0.4953,0.387924 -0.726536,0 -1.775194,-0.536583 -2.675108,-1.403472 -0.214658,-0.214658 -0.520133,-0.08259 -0.470596,0.231141 l 0.173416,1.089903 c 0.652231,0.495365 1.420196,0.75946 2.105452,0.75946 1.164108,0 1.783324,-0.77603 1.783324,-1.708968 0,-0.668743 -0.322125,-1.238443 -1.733916,-2.088819 -0.974218,-0.586182 -1.519164,-1.114685 -1.519164,-1.46144 0,-0.18989 0.148678,-0.338516 0.412872,-0.338516 0.495365,0 1.345767,0.495577 2.12184,1.172576 0.23117,0.198146 0.511816,0.05776 0.46228,-0.239456 l -0.156784,-1.023864 c -0.495365,-0.222914 -1.056755,-0.3302 -1.576888,-0.3302 z"
       style="font-weight:bold;font-size:17.4431px;font-family:Gyst;-inkscape-font-specification:'Gyst, Bold';fill:#ffffff;stroke-width:0.557835"
       id="path36" />
    <path
       d="m 30.312058,44.542812 0.355148,2.41902 h 0.189804 l 0.354903,-2.41902 z"
       style="font-weight:bold;font-size:17.4431px;font-family:Gyst;-inkscape-font-specification:'Gyst, Bold';fill:#ffffff;stroke-width:0.557835"
       id="path35" />
  </g>
  <g
     id="g41"
     transform="translate(36.059221,-42.42323)">
    <rect
       style="fill:#000000;fill-opacity:1;stroke:none;stroke-width:0.392576;stroke-dasharray:none;stroke-opacity:1"
       id="rect1-90-9-2-0-3"
       width="10.069337"
       height="10.069337"
       x="17.727047"
       y="42.423229" />
    <path
       d="m 25.002058,44.564127 -0.932876,0.01639 -0.965895,3.25308 -1.65956,-3.25308 h -1.22174 l 1.898771,3.71536 v 2.055799 h 1.155944 v -2.229215 c 0.388036,-0.924682 1.221889,-2.179687 1.948424,-3.104368 0.165122,-0.206403 0.04938,-0.453964 -0.223068,-0.453964 z"
       style="font-weight:bold;font-size:17.4431px;font-family:Gyst;-inkscape-font-specification:'Gyst, Bold';fill:#ffffff;stroke-width:0.557835"
       id="path34" />
  </g>
  <g
     id="g37"
     transform="translate(-6.9697933,-31.604407)">
    <rect
       style="fill:#000000;fill-opacity:1;stroke:none;stroke-width:0.392576;stroke-dasharray:none;stroke-opacity:1"
       id="rect1-90-9-2-0-6"
       width="10.069337"
       height="10.069337"
       x="17.727047"
       y="31.604406" />
    <path
       d="m 22.910305,33.63389 c -1.659474,0 -2.930952,1.436444 -2.930952,3.178479 0,1.618193 1.098071,2.831892 2.691496,2.831892 1.659473,0 2.873227,-1.312553 2.873227,-3.104123 0,-1.717267 -1.122908,-2.906248 -2.633771,-2.906248 z m -0.85852,0.544952 c 1.296205,0 2.658476,1.659518 2.658476,3.368527 0,0.833865 -0.322071,1.568572 -1.221984,1.568572 -1.362255,0 -2.633772,-1.717191 -2.633772,-3.351896 0,-0.833864 0.330391,-1.585203 1.19728,-1.585203 z"
       style="font-weight:bold;font-size:17.4431px;font-family:Gyst;-inkscape-font-specification:'Gyst, Bold';fill:#ffffff;stroke-width:0.557835"
       id="path33" />
  </g>
  <g
     id="g39"
     transform="translate(-7.0929319,-31.604407)">
    <rect
       style="fill:#000000;fill-opacity:1;stroke:none;stroke-width:0.392576;stroke-dasharray:none;stroke-opacity:1"
       id="rect1-90-9-2-0-2"
       width="10.069337"
       height="10.069337"
       x="-41.673744"
       y="39.364693"
       transform="rotate(-90)" />
    <path
       d="m 44.44325,33.629731 c -1.436559,0 -1.808027,0.82567 -1.808027,1.387084 0,0.75956 0.68519,1.370416 1.874067,2.105207 0.924682,0.577926 1.502776,0.941307 1.502776,1.46144 0,0.255939 -0.140288,0.387924 -0.4953,0.387924 -0.726535,0 -1.775194,-0.536583 -2.675107,-1.403472 -0.214658,-0.214658 -0.520133,-0.08259 -0.470596,0.231141 l 0.173416,1.089903 c 0.652231,0.495365 1.419952,0.75946 2.105207,0.75946 1.164108,0 1.783324,-0.77603 1.783324,-1.708968 0,-0.668743 -0.321881,-1.238443 -1.733672,-2.088819 -0.974218,-0.586182 -1.519163,-1.114685 -1.519163,-1.46144 0,-0.18989 0.148677,-0.338517 0.412872,-0.338517 0.495365,0 1.345767,0.495578 2.121839,1.172577 0.231171,0.198146 0.511816,0.05776 0.46228,-0.239456 l -0.156784,-1.023864 c -0.495365,-0.222915 -1.056998,-0.3302 -1.577132,-0.3302 z"
       style="font-weight:bold;font-size:17.4431px;font-family:Gyst;-inkscape-font-specification:'Gyst, Bold';fill:#ffffff;stroke-width:0.557835"
       id="path32" />
  </g>
  <g
     id="g38"
     transform="translate(-7.0313607,-31.604407)">
    <rect
       style="fill:#000000;fill-opacity:1;stroke:none;stroke-width:0.392576;stroke-dasharray:none;stroke-opacity:1"
       id="rect1-90-9-2-0-41-2"
       width="10.069337"
       height="10.069337"
       x="28.545868"
       y="31.604406" />
    <path
       d="m 31.658281,33.753496 v 5.771159 h 3.401547 l 0.412627,-1.015548 c 0.132098,-0.330244 -0.18982,-0.63586 -0.528319,-0.322128 -0.866889,0.80084 -1.510907,1.089904 -1.98976,1.089904 h -0.140152 v -5.523387 z"
       style="font-weight:bold;font-size:17.4431px;font-family:Gyst;-inkscape-font-specification:'Gyst, Bold';fill:#ffffff;stroke-width:0.557835"
       id="path31" />
  </g>
  <g
     id="g42"
     transform="translate(36.120792,-42.42323)">
    <rect
       style="fill:#000000;fill-opacity:1;stroke:none;stroke-width:0.392576;stroke-dasharray:none;stroke-opacity:1"
       id="rect1-90-9-2-0-49"
       width="10.069337"
       height="10.069337"
       x="6.9082222"
       y="42.423229" />
    <path
       d="m 12.091603,44.452713 c -1.659473,0 -2.9309518,1.436445 -2.9309518,3.178479 0,1.618193 1.0980708,2.831892 2.6914958,2.831892 1.659473,0 2.872983,-1.312552 2.872983,-3.104123 0,-1.717266 -1.122663,-2.906248 -2.633527,-2.906248 z m -0.858765,0.544952 c 1.296206,0 2.658476,1.659518 2.658476,3.368528 0,0.833864 -0.32207,1.568571 -1.221984,1.568571 -1.362254,0 -2.633527,-1.71719 -2.633527,-3.351895 0,-0.833865 0.330147,-1.585204 1.197035,-1.585204 z"
       style="font-weight:bold;font-size:17.4431px;font-family:Gyst;-inkscape-font-specification:'Gyst, Bold';fill:#ffffff;stroke-width:0.557835"
       id="path30" />
  </g>
  <g
     id="g36"
     transform="translate(-6.908222,-31.604407)">
    <rect
       style="fill:#000000;fill-opacity:1;stroke:none;stroke-width:0.392576;stroke-dasharray:none;stroke-opacity:1"
       id="rect1-90-9-2-0-41"
       width="10.069337"
       height="10.069337"
       x="6.9082222"
       y="31.604406" />
    <path
       d="m 9.8665451,33.753494 v 5.77116 h 1.8327319 c 1.362254,0 2.319958,-0.652262 2.319958,-1.618224 0,-0.693512 -0.577896,-1.337599 -1.609906,-1.46144 0.759559,-0.181634 1.304411,-0.668689 1.304411,-1.337432 0,-0.751304 -0.635611,-1.354064 -2.204267,-1.354064 z m 1.4448069,0.256088 c 0.478854,0 1.1557,0.313621 1.1557,1.296096 0,1.056779 -0.792578,1.056884 -0.974211,1.056884 -0.198147,0 -0.355012,-0.01669 -0.470597,-0.02495 v -2.31996 c 0.0743,-0.0083 0.165267,-0.0081 0.289108,-0.0081 z m 0.09074,2.600508 c 0.635719,0 1.345748,0.446001 1.345748,1.469756 0,1.18062 -0.916337,1.180403 -1.130995,1.180403 -0.247683,0 -0.437739,-0.0083 -0.594605,-0.03302 V 36.62672 c 0.09907,-0.0083 0.222987,-0.01663 0.379852,-0.01663 z"
       style="font-weight:bold;font-size:17.4431px;font-family:Gyst;-inkscape-font-specification:'Gyst, Bold';fill:#ffffff;stroke-width:0.557835"
       id="path29" />
  </g>
</svg>
