<?xml version="1.0" encoding="UTF-8" standalone="no"?>
<!-- Created with Inkscape (http://www.inkscape.org/) -->

<svg
   width="84.147903mm"
   height="48.963848mm"
   viewBox="0 0 84.147902 48.963848"
   version="1.1"
   id="svg1"
   xmlns="http://www.w3.org/2000/svg"
   xmlns:svg="http://www.w3.org/2000/svg">
  <defs
     id="defs1" />
  <g
     id="g1"
     transform="matrix(0,0.95008369,-0.9994391,0,265.9899,-70.330626)">
    <path
       id="rect1-90-9-2-0-1"
       style="stroke-width:0.79481"
       d="m 96.498589,182.17969 6.807531,-0.0129 c 0,0 -3.3048,4.21083 -3.306946,5.75156 -0.662648,1.59723 -0.376763,2.75809 0.772666,3.73819 -0.27057,1.89091 0.47675,2.43749 1.84855,2.65814 0.55314,2.10676 1.03181,2.18892 2.88825,2.04848 0.58241,2.01052 1.39337,2.16057 3.1681,1.56542 0.97406,1.4368 2.13153,1.68401 3.34353,0.99671 0.74462,1.57795 2.54088,0.95021 3.01342,0.34827 1.23365,0.50663 2.38093,-0.60929 2.38093,-0.60929 v 3.38565 H 96.498589 Z" />
  </g>
  <rect
     style="fill:#000000;fill-opacity:1;stroke:none;stroke-width:0.774755;stroke-dasharray:none;stroke-opacity:1"
     id="rect1-90-9-2-0-7"
     width="19.871979"
     height="19.871979"
     x="42.702202"
     y="21.351105" />
  <rect
     style="fill:#000000;fill-opacity:1;stroke:none;stroke-width:0.774755;stroke-dasharray:none;stroke-opacity:1"
     id="rect1-90-9-2-0-2"
     width="19.871979"
     height="19.871979"
     x="-19.871981"
     y="64.053314"
     transform="rotate(-90)" />
  <rect
     style="fill:#000000;fill-opacity:1;stroke:none;stroke-width:0.774755;stroke-dasharray:none;stroke-opacity:1"
     id="rect1-90-9-2-0-41-2"
     width="19.871979"
     height="19.871979"
     x="42.702202"
     y="2.6724658e-06" />
  <rect
     style="fill:#000000;fill-opacity:1;stroke:none;stroke-width:0.774755;stroke-dasharray:none;stroke-opacity:1"
     id="rect1-90-9-2-0-6"
     width="19.871979"
     height="19.871979"
     x="21.351103"
     y="2.6724658e-06" />
  <rect
     style="fill:#000000;fill-opacity:1;stroke:none;stroke-width:0.774755;stroke-dasharray:none;stroke-opacity:1"
     id="rect1-90-9-2-0-41"
     width="19.871979"
     height="19.871979"
     x="1.5877849e-14"
     y="-1.0878885e-15" />
  <rect
     style="fill:#000000;fill-opacity:1;stroke:none;stroke-width:0.774755;stroke-dasharray:none;stroke-opacity:1"
     id="rect1-90-9-2-0-3"
     width="19.871979"
     height="19.871979"
     x="21.351103"
     y="21.351105" />
  <rect
     style="fill:#000000;fill-opacity:1;stroke:none;stroke-width:0.774755;stroke-dasharray:none;stroke-opacity:1"
     id="rect1-90-9-2-0-49"
     width="19.871979"
     height="19.871979"
     x="1.5877849e-14"
     y="21.351105" />
  <path
     d="m 52.725043,25.348111 c -2.835069,0 -3.568168,1.629471 -3.568168,2.737429 0,1.499002 1.352235,2.704535 3.6985,4.154657 1.824872,1.140546 2.965267,1.857683 2.965267,2.884172 0,0.5051 -0.276861,0.765574 -0.977482,0.765574 -1.433828,0 -3.503371,-1.058954 -5.279363,-2.769772 -0.423631,-0.423631 -1.026489,-0.162993 -0.928728,0.456159 l 0.342239,2.15094 c 1.287187,0.977611 2.802778,1.498804 4.15514,1.498804 2.297384,0 3.519415,-1.531505 3.519415,-3.372671 0,-1.319774 -0.635719,-2.444085 -3.421908,-4.122315 -1.922634,-1.156839 -2.998091,-2.199846 -2.998091,-2.884173 0,-0.37475 0.293417,-0.668066 0.814809,-0.668066 0.97761,0 2.65589,0.978028 4.18748,2.314096 0.456217,0.391044 1.010077,0.113997 0.912316,-0.47257 l -0.309415,-2.02061 c -0.97761,-0.439925 -2.08552,-0.651654 -3.112011,-0.651654 z"
     style="font-weight:bold;font-size:17.4431px;font-family:Gyst;-inkscape-font-specification:'Gyst, Bold';fill:#ffffff;stroke-width:1.1009"
     id="path36" />
  <path
     d="m 46.187801,25.534129 0.70089,4.77397 h 0.37458 l 0.700408,-4.77397 z"
     style="font-weight:bold;font-size:17.4431px;font-family:Gyst;-inkscape-font-specification:'Gyst, Bold';fill:#ffffff;stroke-width:1.1009"
     id="path35" />
  <path
     d="m 35.708441,25.576193 -1.841044,0.03234 -1.906208,6.419999 -3.275165,-6.419999 h -2.41112 l 3.747251,7.332315 v 4.05715 h 2.281272 v -4.399389 c 0.765794,-1.824873 2.411415,-4.301642 3.845242,-6.126514 0.32587,-0.407338 0.09746,-0.895904 -0.440228,-0.895904 z"
     style="font-weight:bold;font-size:17.4431px;font-family:Gyst;-inkscape-font-specification:'Gyst, Bold';fill:#ffffff;stroke-width:1.1009"
     id="path34" />
  <path
     d="m 31.580336,4.0052156 c -3.274994,0 -5.784275,2.8348438 -5.784275,6.2727734 0,3.193527 2.16706,5.588779 5.311706,5.588779 3.274994,0 5.670355,-2.590342 5.670355,-6.1260313 0,-3.389049 -2.216075,-5.7355211 -5.197786,-5.7355211 z m -1.694301,1.0754706 c 2.55808,0 5.24654,3.2750817 5.24654,6.6478358 0,1.645644 -0.635611,3.095599 -2.411603,3.095599 -2.688429,0 -5.197786,-3.3889 -5.197786,-6.6150134 0,-1.6456438 0.652031,-3.1284214 2.362849,-3.1284214 z"
     style="font-weight:bold;font-size:17.4431px;font-family:Gyst;-inkscape-font-specification:'Gyst, Bold';fill:#ffffff;stroke-width:1.1009"
     id="path33" />
  <path
     d="m 74.07591,3.9970081 c -2.835071,0 -3.568169,1.6294711 -3.568169,2.7374295 0,1.4990022 1.352234,2.7045352 3.698499,4.1546574 1.824872,1.140545 2.96575,1.857682 2.96575,2.884172 0,0.505098 -0.276861,0.765572 -0.977481,0.765572 -1.433829,0 -3.503371,-1.058953 -5.279363,-2.76977 -0.423631,-0.423632 -1.02649,-0.162994 -0.928728,0.456158 l 0.342239,2.150941 c 1.287187,0.97761 2.802296,1.498804 4.154657,1.498804 2.297384,0 3.519414,-1.531506 3.519414,-3.372672 0,-1.319774 -0.635236,-2.444084 -3.421425,-4.1223148 -1.922633,-1.1568387 -2.998091,-2.1998458 -2.998091,-2.8841725 0,-0.3747503 0.293416,-0.6680667 0.814809,-0.6680667 0.97761,0 2.655891,0.9780289 4.18748,2.314096 0.456218,0.3910447 1.010077,0.1139969 0.912316,-0.4725696 L 77.188402,4.6486623 C 76.210792,4.2087374 75.1024,3.9970081 74.07591,3.9970081 Z"
     style="font-weight:bold;font-size:17.4431px;font-family:Gyst;-inkscape-font-specification:'Gyst, Bold';fill:#ffffff;stroke-width:1.1009"
     id="path32" />
  <path
     d="M 48.84459,4.2412594 V 15.630724 h 6.713002 l 0.814326,-2.004199 c 0.260697,-0.65174 -0.374612,-1.254878 -1.042645,-0.635724 -1.710818,1.580469 -2.981796,2.150941 -3.92682,2.150941 H 51.125862 V 4.2412594 Z"
     style="font-weight:bold;font-size:17.4431px;font-family:Gyst;-inkscape-font-specification:'Gyst, Bold';fill:#ffffff;stroke-width:1.1009"
     id="path31" />
  <path
     d="m 10.229474,25.356317 c -3.2749929,0 -5.7842734,2.834844 -5.7842734,6.272773 0,3.193528 2.1670582,5.588778 5.3117047,5.588778 3.2749937,0 5.6698717,-2.59034 5.6698717,-6.12603 0,-3.389049 -2.215591,-5.735521 -5.197303,-5.735521 z m -1.6947824,1.075471 c 2.5580794,0 5.2465394,3.275082 5.2465394,6.647836 0,1.645644 -0.635612,3.095598 -2.411604,3.095598 -2.6884264,0 -5.1973015,-3.3889 -5.1973015,-6.615013 0,-1.645644 0.6515487,-3.128421 2.3623661,-3.128421 z"
     style="font-weight:bold;font-size:17.4431px;font-family:Gyst;-inkscape-font-specification:'Gyst, Bold';fill:#ffffff;stroke-width:1.1009"
     id="path30" />
  <path
     d="M 5.8382924,4.2412566 V 15.630722 h 3.6169209 c 2.6884277,0 4.5784717,-1.287249 4.5784717,-3.193588 0,-1.368655 -1.140488,-2.6397706 -3.177174,-2.8841727 1.499001,-0.3584569 2.574274,-1.3196663 2.574274,-2.6394409 0,-1.4827084 -1.254388,-2.6722638 -4.3501515,-2.6722638 z m 2.8513478,0.5053937 c 0.9450229,0 2.2807888,0.6189357 2.2807888,2.5578633 0,2.0855687 -1.5641632,2.0857761 -1.9226196,2.0857761 -0.3910447,0 -0.7006195,-0.032945 -0.9287282,-0.049236 V 4.7625794 c 0.1466417,-0.016291 0.3261569,-0.015926 0.570559,-0.015926 z m 0.1790846,5.1321381 c 1.2545992,0 2.6558502,0.8801896 2.6558502,2.9005846 0,2.329971 -1.8084028,2.329542 -2.2320338,2.329542 -0.4888051,0 -0.8638833,-0.01628 -1.17346,-0.06516 V 9.9116125 C 8.3146031,9.8953215 8.559149,9.8787885 8.8687248,9.8787884 Z"
     style="font-weight:bold;font-size:17.4431px;font-family:Gyst;-inkscape-font-specification:'Gyst, Bold';fill:#ffffff;stroke-width:1.1009"
     id="path29" />
  <path
     style="font-weight:bold;font-size:13.4707px;font-family:Gyst;-inkscape-font-specification:'Gyst, Bold';stroke-width:0.611611"
     d="m 2.3910152,48.954799 c 0.8870892,0 1.3577887,-0.50691 1.7470231,-1.03192 L 4.0113116,47.778048 c -0.2353507,0.190088 -0.5431171,0.325867 -0.9051937,0.325867 -1.1858028,0 -2.0004765,-1.393993 -2.0004765,-2.480228 0,-0.534064 0.2172464,-1.004766 0.7603622,-1.004766 0.3892329,0 0.9414009,0.253454 1.6112432,1.086236 0.2262974,0.280609 0.5883758,0.117675 0.5340648,-0.2263 L 3.8483765,44.419782 c -0.244403,-0.171991 -0.7694145,-0.307769 -1.240115,-0.307769 -1.339685,0 -2.41686529,1.131493 -2.41686529,2.570749 0,1.303477 0.88708949,2.272037 2.19056739,2.272037 z M 13.479613,45.859038 v 2.959982 h 1.17675 v -2.878512 c 0,-1.167699 -0.51596,-1.828495 -1.249166,-1.828495 -0.60648,0 -1.212959,0.470702 -1.611244,1.077184 v -2.787998 l -1.176751,0.181043 v 6.245829 h 1.176751 v -3.376368 c 0.316818,-0.334925 0.678895,-0.543116 1.022868,-0.543116 0.452597,0 0.660792,0.371125 0.660792,0.959502 z m 9.767009,3.095761 c 1.357789,0 2.335396,-1.059074 2.335396,-2.49833 0,-1.384948 -0.914243,-2.344456 -2.154357,-2.344456 -1.357789,0 -2.389711,1.158647 -2.389711,2.561697 0,1.303477 0.896142,2.29014 2.208672,2.29014 z m 0.814674,-0.525012 c -1.004765,0 -2.163412,-1.710813 -2.163412,-2.88757 0,-0.543115 0.244402,-0.878032 0.687946,-0.878032 0.995713,0 2.154361,1.719865 2.154361,2.896614 0,0.534064 -0.244403,0.868988 -0.678895,0.868988 z m 9.803236,0.525012 c 0.88709,0 1.357789,-0.50691 1.747023,-1.03192 l -0.126728,-0.144831 c -0.23535,0.190088 -0.543115,0.325867 -0.905193,0.325867 -1.185802,0 -2.000476,-1.393993 -2.000476,-2.480228 0,-0.534064 0.217246,-1.004766 0.760362,-1.004766 0.389233,0 0.9414,0.253454 1.611244,1.086236 0.226297,0.280609 0.588375,0.117675 0.534063,-0.2263 l -0.162935,-1.059075 c -0.244401,-0.171991 -0.769414,-0.307769 -1.240114,-0.307769 -1.339686,0 -2.416864,1.131493 -2.416864,2.570749 0,1.303477 0.887087,2.272037 2.190565,2.272037 z m 10.020479,0 c 1.357788,0 2.335397,-1.059074 2.335397,-2.49833 0,-1.384948 -0.914246,-2.344456 -2.154359,-2.344456 -1.35779,0 -2.38971,1.158647 -2.38971,2.561697 0,1.303477 0.896142,2.29014 2.208672,2.29014 z m 0.814672,-0.525012 c -1.004763,0 -2.16341,-1.710813 -2.16341,-2.88757 0,-0.543115 0.244401,-0.878032 0.687946,-0.878032 0.995712,0 2.154359,1.719865 2.154359,2.896614 0,0.534064 -0.244402,0.868988 -0.678895,0.868988 z m 8.020005,0.389233 h 1.17675 v -6.426872 l -1.17675,0.190094 z m 10.572614,0 h 1.185808 l -0.226299,-1.222014 0.01807,-1.547881 c 0.01807,-1.475461 -0.706047,-1.937112 -1.620291,-1.937112 -0.588378,0 -1.339691,0.190094 -1.719871,0.371129 l -0.14483,0.923296 c -0.05429,0.37113 0.29871,0.53407 0.552164,0.253454 0.832783,-0.95045 1.203912,-1.276315 1.47547,-1.276315 0.171984,0 0.271556,0.126726 0.271556,0.724149 v 0.624584 l -0.959507,0.443543 c -1.321581,0.624584 -1.765122,1.059081 -1.765122,1.701768 0,0.561217 0.343968,1.050023 1.140544,1.050023 0.751304,0 1.294425,-0.443548 1.61124,-0.995714 z m -1.801328,-1.430205 c 0,-0.398283 0.325866,-0.751311 1.095281,-1.104338 l 0.497856,-0.235352 v 1.629351 c -0.226299,0.253454 -0.588378,0.380181 -0.878037,0.380181 -0.443542,0 -0.7151,-0.298712 -0.7151,-0.669842 z m 10.654091,1.565984 c 0.615524,0 1.276316,-0.244404 1.728918,-0.470703 v -1.022869 c 0,-0.325866 -0.353026,-0.407336 -0.497855,-0.135778 -0.461657,0.859936 -0.832775,1.330638 -1.004765,1.330638 -0.09052,0 -0.153883,-0.05429 -0.153883,-0.660796 v -3.430678 h 1.765125 V 44.247791 H 72.21748 v -1.303476 l -1.62935,1.439262 v 0.181036 h 0.470702 l -0.01805,2.905665 c -0.0091,1.158647 0.443542,1.493572 1.104334,1.493572 z m 10.092876,0 c 0.878035,0 1.43926,-0.452601 1.855646,-1.022869 L 83.966859,47.7871 c -0.316819,0.262505 -0.633638,0.380182 -1.004765,0.380182 -1.086234,0 -1.620298,-0.905194 -1.792279,-1.737975 h 2.181513 c 0.389226,0 0.796574,-0.01807 0.796574,-0.687945 0,-0.859935 -0.660791,-1.620298 -1.747025,-1.620298 -1.339684,0 -2.353504,1.158648 -2.353504,2.561698 0,1.321586 0.914244,2.272037 2.190568,2.272037 z m -1.131494,-3.141018 c 0,-0.814679 0.307764,-1.348742 0.850889,-1.348742 0.706045,0 0.959497,0.950458 0.959497,1.656505 H 81.1155 C 81.1064,46.01292 81.1064,45.913347 81.1064,45.813781 Z"
     id="text8"
     aria-label="c   h   o   c   o   l   a   t   e" />
</svg>
