<?xml version="1.0" encoding="UTF-8" standalone="no"?>
<!-- Created with Inkscape (http://www.inkscape.org/) -->

<svg
   width="89.846672mm"
   height="44.131607mm"
   viewBox="0 0 89.846671 44.131607"
   version="1.1"
   id="svg1"
   xmlns="http://www.w3.org/2000/svg"
   xmlns:svg="http://www.w3.org/2000/svg">
  <defs
     id="defs1" />
  <g
     id="g1"
     transform="matrix(0,1.0171173,-1.069955,0,284.75694,-75.292837)">
    <path
       id="rect1-90-9-2-0-1"
       style="stroke-width:0.79481"
       d="m 96.498589,182.17969 6.807531,-0.0129 c 0,0 -3.3048,4.21083 -3.306946,5.75156 -0.662648,1.59723 -0.376763,2.75809 0.772666,3.73819 -0.27057,1.89091 0.47675,2.43749 1.84855,2.65814 0.55314,2.10676 1.03181,2.18892 2.88825,2.04848 0.58241,2.01052 1.39337,2.16057 3.1681,1.56542 0.97406,1.4368 2.13153,1.68401 3.34353,0.99671 0.74462,1.57795 2.54088,0.95021 3.01342,0.34827 1.23365,0.50663 2.38093,-0.60929 2.38093,-0.60929 v 3.38565 H 96.498589 Z" />
  </g>
  <rect
     style="fill:#000000;fill-opacity:1;stroke:none;stroke-width:0.829418;stroke-dasharray:none;stroke-opacity:1"
     id="rect1-90-9-2-0-7"
     width="21.274055"
     height="21.274055"
     x="45.715076"
     y="22.857542" />
  <rect
     style="fill:#000000;fill-opacity:1;stroke:none;stroke-width:0.829418;stroke-dasharray:none;stroke-opacity:1"
     id="rect1-90-9-2-0-2"
     width="21.274055"
     height="21.274055"
     x="-21.274057"
     y="68.572624"
     transform="rotate(-90)" />
  <rect
     style="fill:#000000;fill-opacity:1;stroke:none;stroke-width:0.829418;stroke-dasharray:none;stroke-opacity:1"
     id="rect1-90-9-2-0-41-2"
     width="21.274055"
     height="21.274055"
     x="45.715076"
     y="2.7166075e-06" />
  <rect
     style="fill:#000000;fill-opacity:1;stroke:none;stroke-width:0.829418;stroke-dasharray:none;stroke-opacity:1"
     id="rect1-90-9-2-0-6"
     width="21.274055"
     height="21.274055"
     x="22.85754"
     y="2.7166075e-06" />
  <rect
     style="fill:#000000;fill-opacity:1;stroke:none;stroke-width:0.829418;stroke-dasharray:none;stroke-opacity:1"
     id="rect1-90-9-2-0-41"
     width="21.274055"
     height="21.274055"
     x="4.1014587e-07"
     y="-1.4441552e-07" />
  <rect
     style="fill:#000000;fill-opacity:1;stroke:none;stroke-width:0.829418;stroke-dasharray:none;stroke-opacity:1"
     id="rect1-90-9-2-0-3"
     width="21.274055"
     height="21.274055"
     x="22.85754"
     y="22.857542" />
  <rect
     style="fill:#000000;fill-opacity:1;stroke:none;stroke-width:0.829418;stroke-dasharray:none;stroke-opacity:1"
     id="rect1-90-9-2-0-49"
     width="21.274055"
     height="21.274055"
     x="4.1014587e-07"
     y="22.857542" />
  <path
     d="m 56.445085,27.136559 c -3.035099,0 -3.819922,1.744439 -3.819922,2.93057 0,1.604765 1.447643,2.895355 3.959449,4.447791 1.953627,1.221017 3.174483,1.988752 3.174483,3.087666 0,0.540737 -0.296395,0.819589 -1.046448,0.819589 -1.534993,0 -3.750553,-1.133669 -5.651851,-2.965194 -0.453521,-0.453521 -1.098914,-0.174494 -0.994255,0.488343 l 0.366386,2.302701 c 1.378005,1.046586 3.000529,1.604553 4.448307,1.604553 2.459477,0 3.767729,-1.639562 3.767729,-3.610632 0,-1.412891 -0.680572,-2.616528 -3.663342,-4.413167 -2.058286,-1.23846 -3.209623,-2.355057 -3.209623,-3.087667 0,-0.401191 0.314119,-0.715202 0.872298,-0.715202 1.046586,0 2.843278,1.047034 4.48293,2.477368 0.488406,0.418635 1.081344,0.12204 0.976685,-0.505912 L 59.776665,27.834191 C 58.730079,27.363227 57.544,27.136559 56.445085,27.136559 Z"
     style="font-weight:bold;font-size:17.4431px;font-family:Gyst;-inkscape-font-specification:'Gyst, Bold';fill:#ffffff;stroke-width:1.17857"
     id="path36" />
  <path
     d="m 49.446604,27.335702 0.750342,5.110799 h 0.401009 l 0.749825,-5.110799 z"
     style="font-weight:bold;font-size:17.4431px;font-family:Gyst;-inkscape-font-specification:'Gyst, Bold';fill:#ffffff;stroke-width:1.17857"
     id="path35" />
  <path
     d="m 38.227868,27.380734 -1.970939,0.03462 -2.040702,6.872965 -3.506246,-6.872965 h -2.581238 l 4.011641,7.84965 v 4.343404 h 2.442228 v -4.70979 c 0.819825,-1.953627 2.581553,-4.605146 4.116545,-6.558773 0.348862,-0.436078 0.104333,-0.959115 -0.471289,-0.959115 z"
     style="font-weight:bold;font-size:17.4431px;font-family:Gyst;-inkscape-font-specification:'Gyst, Bold';fill:#ffffff;stroke-width:1.17857"
     id="path34" />
  <path
     d="m 33.808503,4.2878054 c -3.506063,0 -6.192387,3.0348576 -6.192387,6.7153516 0,3.418848 2.319957,5.983098 5.686475,5.983098 3.506063,0 6.07043,-2.773104 6.07043,-6.558256 0,-3.628165 -2.372431,-6.1401936 -5.564518,-6.1401936 z m -1.813843,1.151351 c 2.738566,0 5.616712,3.5061566 5.616712,7.1168776 0,1.761753 -0.680457,3.31401 -2.581755,3.31401 -2.878112,0 -5.564518,-3.628006 -5.564518,-7.081739 0,-1.761753 0.698035,-3.3491486 2.529561,-3.3491486 z"
     style="font-weight:bold;font-size:17.4431px;font-family:Gyst;-inkscape-font-specification:'Gyst, Bold';fill:#ffffff;stroke-width:1.17857"
     id="path33" />
  <path
     d="m 79.302372,4.2790188 c -3.0351,0 -3.819922,1.7444392 -3.819922,2.9305702 0,1.604765 1.447641,2.895355 3.959448,4.447791 1.953627,1.221017 3.175,1.988752 3.175,3.087666 0,0.540736 -0.296395,0.819588 -1.046448,0.819588 -1.534993,0 -3.750553,-1.133668 -5.651851,-2.965193 -0.45352,-0.453521 -1.098914,-0.174494 -0.994255,0.488343 l 0.366386,2.302701 c 1.378005,1.046586 3.000014,1.604553 4.447791,1.604553 2.459477,0 3.767728,-1.639562 3.767728,-3.610632 0,-1.412891 -0.680055,-2.616528 -3.662825,-4.413167 -2.058286,-1.23846 -3.209623,-2.355057 -3.209623,-3.0876667 0,-0.401191 0.314118,-0.7152025 0.872298,-0.7152025 1.046586,0 2.843279,1.0470342 4.48293,2.4773682 0.488407,0.418635 1.081343,0.12204 0.976685,-0.505912 L 82.634468,4.9766508 c -1.046586,-0.470964 -2.233181,-0.697632 -3.332096,-0.697632 z"
     style="font-weight:bold;font-size:17.4431px;font-family:Gyst;-inkscape-font-specification:'Gyst, Bold';fill:#ffffff;stroke-width:1.17857"
     id="path32" />
  <path
     d="M 52.290845,4.5405034 V 16.733557 h 7.186641 l 0.871781,-2.145606 c 0.27909,-0.697724 -0.401043,-1.343416 -1.11621,-0.680578 -1.831525,1.69198 -3.192178,2.302702 -4.203878,2.302702 H 54.733073 V 4.5405034 Z"
     style="font-weight:bold;font-size:17.4431px;font-family:Gyst;-inkscape-font-specification:'Gyst, Bold';fill:#ffffff;stroke-width:1.17857"
     id="path31" />
  <path
     d="m 10.951221,27.145344 c -3.5060627,0 -6.1923867,3.034858 -6.1923867,6.715352 0,3.418848 2.319956,5.983097 5.6864747,5.983097 3.506063,0 6.069913,-2.773103 6.069913,-6.558255 0,-3.628165 -2.371913,-6.140194 -5.564001,-6.140194 z m -1.8143597,1.151351 c 2.7385667,0 5.6167117,3.506157 5.6167117,7.116878 0,1.761753 -0.680457,3.314009 -2.581755,3.314009 -2.8781107,0 -5.5640007,-3.628005 -5.5640007,-7.081738 0,-1.761753 0.697519,-3.349149 2.529044,-3.349149 z"
     style="font-weight:bold;font-size:17.4431px;font-family:Gyst;-inkscape-font-specification:'Gyst, Bold';fill:#ffffff;stroke-width:1.17857"
     id="path30" />
  <path
     d="M 6.2502163,4.5405004 V 16.733555 h 3.8721147 c 2.878111,0 4.901508,-1.378071 4.901508,-3.418913 0,-1.465221 -1.220955,-2.826021 -3.401341,-3.087667 1.604764,-0.383748 2.755903,-1.412776 2.755903,-2.825668 0,-1.5873216 -1.342891,-2.8608066 -4.6570787,-2.8608066 z m 3.052526,0.541052 c 1.0116997,0 2.4417117,0.662605 2.4417117,2.7383346 0,2.232717 -1.674524,2.232939 -2.0582717,2.232939 -0.418635,0 -0.750052,-0.03527 -0.994255,-0.05271 V 5.0986054 c 0.156988,-0.01744 0.349169,-0.01705 0.610815,-0.01705 z m 0.19172,5.4942386 c 1.3431187,0 2.8432357,0.942292 2.8432357,3.105237 0,2.494363 -1.935996,2.493904 -2.3895167,2.493904 -0.523293,0 -0.924835,-0.01743 -1.256254,-0.06976 v -5.494241 c 0.209317,-0.01744 0.471117,-0.03514 0.802535,-0.03514 z"
     style="font-weight:bold;font-size:17.4431px;font-family:Gyst;-inkscape-font-specification:'Gyst, Bold';fill:#ffffff;stroke-width:1.17857"
     id="path29" />
</svg>
