<?xml version="1.0" encoding="UTF-8" standalone="no"?>
<!-- Created with Inkscape (http://www.inkscape.org/) -->

<svg
   width="19.871979mm"
   height="19.871979mm"
   viewBox="0 0 19.871978 19.871979"
   version="1.1"
   id="svg1"
   xmlns="http://www.w3.org/2000/svg"
   xmlns:svg="http://www.w3.org/2000/svg">
  <defs
     id="defs1" />
  <rect
     style="fill:#000000;fill-opacity:1;stroke:none;stroke-width:0.774755;stroke-dasharray:none;stroke-opacity:1"
     id="rect1-90-9-2-0-41"
     width="19.871979"
     height="19.871979"
     x="3.9964521e-22"
     y="-1.0180177e-23" />
  <path
     d="M 5.8382924,4.2412566 V 15.630722 h 3.6169209 c 2.6884277,0 4.5784717,-1.287249 4.5784717,-3.193588 0,-1.368655 -1.140488,-2.6397706 -3.177174,-2.8841727 1.499001,-0.3584569 2.574274,-1.3196663 2.574274,-2.6394409 0,-1.4827084 -1.254388,-2.6722638 -4.3501515,-2.6722638 z m 2.8513478,0.5053937 c 0.9450229,0 2.2807888,0.6189357 2.2807888,2.5578633 0,2.0855687 -1.5641632,2.0857761 -1.9226196,2.0857761 -0.3910447,0 -0.7006195,-0.032945 -0.9287282,-0.049236 V 4.7625794 c 0.1466417,-0.016291 0.3261569,-0.015926 0.570559,-0.015926 z m 0.1790846,5.1321381 c 1.2545992,0 2.6558502,0.8801896 2.6558502,2.9005846 0,2.329971 -1.8084028,2.329542 -2.2320338,2.329542 -0.4888051,0 -0.8638833,-0.01628 -1.17346,-0.06516 V 9.9116125 C 8.3146031,9.8953215 8.559149,9.8787885 8.8687248,9.8787884 Z"
     style="font-weight:bold;font-size:17.4431px;font-family:Gyst;-inkscape-font-specification:'Gyst, Bold';fill:#ffffff;stroke-width:1.1009"
     id="path29" />
</svg>
