<?xml version="1.0" encoding="UTF-8" standalone="no"?>
<!-- Created with Inkscape (http://www.inkscape.org/) -->

<svg
   width="90.083496mm"
   height="52.715218mm"
   viewBox="0 0 90.083495 52.715217"
   version="1.1"
   id="svg1"
   xmlns="http://www.w3.org/2000/svg"
   xmlns:svg="http://www.w3.org/2000/svg">
  <defs
     id="defs1" />
  <g
     id="g1"
     transform="matrix(0,1.0171173,-1.069955,0,284.75694,-75.292837)"
     style="fill:#ffffff">
    <path
       id="rect1-90-9-2-0-1"
       style="fill:#ffffff;stroke-width:0.79481"
       d="m 96.498589,182.17969 6.807531,-0.0129 c 0,0 -3.3048,4.21083 -3.306946,5.75156 -0.662648,1.59723 -0.376763,2.75809 0.772666,3.73819 -0.27057,1.89091 0.47675,2.43749 1.84855,2.65814 0.55314,2.10676 1.03181,2.18892 2.88825,2.04848 0.58241,2.01052 1.39337,2.16057 3.1681,1.56542 0.97406,1.4368 2.13153,1.68401 3.34353,0.99671 0.74462,1.57795 2.54088,0.95021 3.01342,0.34827 1.23365,0.50663 2.38093,-0.60929 2.38093,-0.60929 v 3.38565 H 96.498589 Z" />
  </g>
  <rect
     style="fill:#ffffff;fill-opacity:1;stroke:none;stroke-width:0.829418;stroke-dasharray:none;stroke-opacity:1"
     id="rect1-90-9-2-0-7"
     width="21.274055"
     height="21.274055"
     x="45.715076"
     y="22.857542" />
  <rect
     style="fill:#ffffff;fill-opacity:1;stroke:none;stroke-width:0.829418;stroke-dasharray:none;stroke-opacity:1"
     id="rect1-90-9-2-0-2"
     width="21.274055"
     height="21.274055"
     x="-21.274057"
     y="68.572624"
     transform="rotate(-90)" />
  <rect
     style="fill:#ffffff;fill-opacity:1;stroke:none;stroke-width:0.829418;stroke-dasharray:none;stroke-opacity:1"
     id="rect1-90-9-2-0-41-2"
     width="21.274055"
     height="21.274055"
     x="45.715076"
     y="2.8610229e-06" />
  <rect
     style="fill:#ffffff;fill-opacity:1;stroke:none;stroke-width:0.829418;stroke-dasharray:none;stroke-opacity:1"
     id="rect1-90-9-2-0-6"
     width="21.274055"
     height="21.274055"
     x="22.85754"
     y="2.8610229e-06" />
  <rect
     style="fill:#ffffff;fill-opacity:1;stroke:none;stroke-width:0.829418;stroke-dasharray:none;stroke-opacity:1"
     id="rect1-90-9-2-0-41"
     width="21.274055"
     height="21.274055"
     x="-1.353742e-15"
     y="2.0998693e-16" />
  <rect
     style="fill:#ffffff;fill-opacity:1;stroke:none;stroke-width:0.829418;stroke-dasharray:none;stroke-opacity:1"
     id="rect1-90-9-2-0-3"
     width="21.274055"
     height="21.274055"
     x="22.85754"
     y="22.857542" />
  <rect
     style="fill:#ffffff;fill-opacity:1;stroke:none;stroke-width:0.829418;stroke-dasharray:none;stroke-opacity:1"
     id="rect1-90-9-2-0-49"
     width="21.274055"
     height="21.274055"
     x="-1.353742e-15"
     y="22.857542" />
  <path
     d="m 56.445085,27.136559 c -3.035099,0 -3.819922,1.744439 -3.819922,2.93057 0,1.604765 1.447643,2.895355 3.959449,4.447791 1.953627,1.221017 3.174483,1.988752 3.174483,3.087666 0,0.540737 -0.296395,0.819589 -1.046448,0.819589 -1.534993,0 -3.750553,-1.133669 -5.651851,-2.965194 -0.453521,-0.453521 -1.098914,-0.174494 -0.994255,0.488343 l 0.366386,2.302701 c 1.378005,1.046586 3.000529,1.604553 4.448307,1.604553 2.459477,0 3.767729,-1.639562 3.767729,-3.610632 0,-1.412891 -0.680572,-2.616528 -3.663342,-4.413167 -2.058286,-1.23846 -3.209623,-2.355057 -3.209623,-3.087667 0,-0.401191 0.314119,-0.715202 0.872298,-0.715202 1.046586,0 2.843278,1.047034 4.48293,2.477368 0.488406,0.418635 1.081344,0.12204 0.976685,-0.505912 L 59.776665,27.834191 C 58.730079,27.363227 57.544,27.136559 56.445085,27.136559 Z"
     style="font-weight:bold;font-size:17.4431px;font-family:Gyst;-inkscape-font-specification:'Gyst, Bold';fill:#000000;stroke-width:1.17857"
     id="path36" />
  <path
     d="m 49.446604,27.335702 0.750342,5.110799 h 0.401009 l 0.749825,-5.110799 z"
     style="font-weight:bold;font-size:17.4431px;font-family:Gyst;-inkscape-font-specification:'Gyst, Bold';fill:#000000;stroke-width:1.17857"
     id="path35" />
  <path
     d="m 38.227868,27.380734 -1.970939,0.03462 -2.040702,6.872965 -3.506246,-6.872965 h -2.581238 l 4.011641,7.84965 v 4.343404 h 2.442228 v -4.70979 c 0.819825,-1.953627 2.581553,-4.605146 4.116545,-6.558773 0.348862,-0.436078 0.104333,-0.959115 -0.471289,-0.959115 z"
     style="font-weight:bold;font-size:17.4431px;font-family:Gyst;-inkscape-font-specification:'Gyst, Bold';fill:#000000;stroke-width:1.17857"
     id="path34" />
  <path
     d="m 33.808503,4.2878055 c -3.506063,0 -6.192387,3.0348576 -6.192387,6.7153515 0,3.418848 2.319957,5.983098 5.686475,5.983098 3.506063,0 6.07043,-2.773104 6.07043,-6.558256 0,-3.6281649 -2.372431,-6.1401935 -5.564518,-6.1401935 z m -1.813843,1.151351 c 2.738566,0 5.616712,3.5061566 5.616712,7.1168775 0,1.761753 -0.680457,3.31401 -2.581755,3.31401 -2.878112,0 -5.564518,-3.628006 -5.564518,-7.0817389 0,-1.761753 0.698035,-3.3491486 2.529561,-3.3491486 z"
     style="font-weight:bold;font-size:17.4431px;font-family:Gyst;-inkscape-font-specification:'Gyst, Bold';fill:#000000;stroke-width:1.17857"
     id="path33" />
  <path
     d="m 79.302372,4.2790189 c -3.0351,0 -3.819922,1.7444392 -3.819922,2.9305702 0,1.604765 1.447641,2.8953549 3.959448,4.4477909 1.953627,1.221017 3.175,1.988752 3.175,3.087666 0,0.540736 -0.296395,0.819588 -1.046448,0.819588 -1.534993,0 -3.750553,-1.133668 -5.651851,-2.965193 -0.45352,-0.453521 -1.098914,-0.174494 -0.994255,0.488343 l 0.366386,2.302701 c 1.378005,1.046586 3.000014,1.604553 4.447791,1.604553 2.459477,0 3.767728,-1.639562 3.767728,-3.610632 0,-1.412891 -0.680055,-2.616528 -3.662825,-4.4131669 -2.058286,-1.23846 -3.209623,-2.355057 -3.209623,-3.0876667 0,-0.401191 0.314118,-0.7152025 0.872298,-0.7152025 1.046586,0 2.843279,1.0470342 4.48293,2.4773682 0.488407,0.418635 1.081343,0.12204 0.976685,-0.505912 L 82.634468,4.9766509 c -1.046586,-0.470964 -2.233181,-0.697632 -3.332096,-0.697632 z"
     style="font-weight:bold;font-size:17.4431px;font-family:Gyst;-inkscape-font-specification:'Gyst, Bold';fill:#000000;stroke-width:1.17857"
     id="path32" />
  <path
     d="M 52.290845,4.5405035 V 16.733557 h 7.186641 l 0.871781,-2.145606 c 0.27909,-0.697724 -0.401043,-1.343416 -1.11621,-0.680578 -1.831525,1.69198 -3.192178,2.302702 -4.203878,2.302702 H 54.733073 V 4.5405035 Z"
     style="font-weight:bold;font-size:17.4431px;font-family:Gyst;-inkscape-font-specification:'Gyst, Bold';fill:#000000;stroke-width:1.17857"
     id="path31" />
  <path
     d="m 10.951221,27.145344 c -3.5060632,0 -6.1923872,3.034858 -6.1923872,6.715352 0,3.418848 2.319956,5.983097 5.6864752,5.983097 3.506063,0 6.069913,-2.773103 6.069913,-6.558255 0,-3.628165 -2.371913,-6.140194 -5.564001,-6.140194 z m -1.8143602,1.151351 c 2.7385672,0 5.6167122,3.506157 5.6167122,7.116878 0,1.761753 -0.680457,3.314009 -2.581755,3.314009 -2.8781112,0 -5.5640012,-3.628005 -5.5640012,-7.081738 0,-1.761753 0.697519,-3.349149 2.529044,-3.349149 z"
     style="font-weight:bold;font-size:17.4431px;font-family:Gyst;-inkscape-font-specification:'Gyst, Bold';fill:#000000;stroke-width:1.17857"
     id="path30" />
  <path
     d="M 6.2502158,4.5405005 V 16.733555 h 3.8721152 c 2.878111,0 4.901508,-1.378071 4.901508,-3.418913 0,-1.465221 -1.220955,-2.826021 -3.401341,-3.087667 1.604764,-0.3837479 2.755903,-1.4127759 2.755903,-2.8256679 0,-1.5873216 -1.342891,-2.8608066 -4.6570792,-2.8608066 z m 3.052526,0.541052 c 1.0117002,0 2.4417122,0.662605 2.4417122,2.7383346 0,2.2327169 -1.674524,2.2329389 -2.0582722,2.2329389 -0.418635,0 -0.750052,-0.03527 -0.994255,-0.05271 V 5.0986055 c 0.156988,-0.01744 0.349169,-0.01705 0.610815,-0.01705 z m 0.19172,5.4942385 c 1.3431192,0 2.8432362,0.942292 2.8432362,3.105237 0,2.494363 -1.935996,2.493904 -2.3895172,2.493904 -0.523293,0 -0.924835,-0.01743 -1.256254,-0.06976 v -5.494241 c 0.209317,-0.01744 0.471117,-0.03514 0.802535,-0.03514 z"
     style="font-weight:bold;font-size:17.4431px;font-family:Gyst;-inkscape-font-specification:'Gyst, Bold';fill:#000000;stroke-width:1.17857"
     id="path29" />
  <path
     style="font-weight:bold;font-size:13.4707px;font-family:Gyst;-inkscape-font-specification:'Gyst, Bold';fill:#d4aa00;stroke-width:0.654763"
     d="m 2.5582126,52.705526 c 0.9496782,0 1.4535882,-0.542675 1.8702852,-1.104728 l -0.135668,-0.155049 c -0.251956,0.203499 -0.581437,0.348858 -0.96906,0.348858 -1.2694677,0 -2.1416211,-1.492346 -2.1416211,-2.655221 0,-0.571745 0.2325743,-1.075658 0.8140099,-1.075658 0.4166954,0 1.0078219,0.271337 1.7249252,1.162876 0.242264,0.300407 0.629889,0.125978 0.571746,-0.242267 l -0.174431,-1.133798 c -0.261647,-0.184126 -0.823701,-0.329484 -1.327612,-0.329484 -1.4342071,0 -2.58738821,1.211326 -2.58738821,2.752129 0,1.395445 0.94967841,2.432342 2.34512381,2.432342 z M 14.429173,49.391342 v 3.168825 h 1.259776 V 49.47856 c 0,-1.250086 -0.552364,-1.957505 -1.337302,-1.957505 -0.64927,0 -1.29854,0.503913 -1.724926,1.153185 v -2.984706 l -1.259777,0.193816 v 6.686507 h 1.259777 v -3.61459 c 0.339172,-0.358555 0.726795,-0.581435 1.095037,-0.581435 0.48453,0 0.707415,0.397309 0.707415,1.0272 z m 10.456125,3.314184 c 1.453588,0 2.500171,-1.133798 2.500171,-2.674601 0,-1.482664 -0.978748,-2.50987 -2.306359,-2.50987 -1.453589,0 -2.558318,1.240396 -2.558318,2.742439 0,1.395444 0.95937,2.451722 2.364506,2.451722 z m 0.872153,-0.562055 c -1.075656,0 -2.316052,-1.83152 -2.316052,-3.091303 0,-0.581435 0.261646,-0.939982 0.736484,-0.939982 1.065966,0 2.306363,1.841211 2.306363,3.100986 0,0.571745 -0.261647,0.930299 -0.726795,0.930299 z m 10.494908,0.562055 c 0.949679,0 1.453589,-0.542675 1.870285,-1.104728 l -0.135669,-0.155049 c -0.251955,0.203499 -0.581435,0.348858 -0.969059,0.348858 -1.269467,0 -2.141621,-1.492346 -2.141621,-2.655221 0,-0.571745 0.232574,-1.075658 0.81401,-1.075658 0.416695,0 1.007821,0.271337 1.724926,1.162876 0.242264,0.300407 0.629888,0.125978 0.571744,-0.242267 l -0.174431,-1.133798 c -0.261645,-0.184126 -0.8237,-0.329484 -1.327611,-0.329484 -1.434208,0 -2.587387,1.211326 -2.587387,2.752129 0,1.395445 0.949676,2.432342 2.345122,2.432342 z m 10.727479,0 c 1.453588,0 2.500172,-1.133798 2.500172,-2.674601 0,-1.482664 -0.978751,-2.50987 -2.306361,-2.50987 -1.453589,0 -2.558317,1.240396 -2.558317,2.742439 0,1.395444 0.95937,2.451722 2.364506,2.451722 z m 0.872152,-0.562055 c -1.075655,0 -2.316051,-1.83152 -2.316051,-3.091303 0,-0.581435 0.261645,-0.939982 0.736485,-0.939982 1.065965,0 2.30636,1.841211 2.30636,3.100986 0,0.571745 -0.261645,0.930299 -0.726794,0.930299 z m 8.58586,0.416696 h 1.259776 V 45.679844 L 56.43785,45.88335 Z m 11.31857,0 h 1.269473 l -0.242266,-1.308234 0.01935,-1.657092 c 0.01935,-1.579563 -0.755863,-2.073786 -1.734612,-2.073786 -0.629891,0 -1.434213,0.203506 -1.841217,0.397314 l -0.155049,0.98844 c -0.05812,0.397315 0.319786,0.571751 0.591123,0.271336 0.89154,-1.017509 1.288854,-1.366366 1.579572,-1.366366 0.184118,0 0.290716,0.135667 0.290716,0.775242 v 0.668652 l -1.027206,0.474837 c -1.414825,0.668652 -1.889661,1.133805 -1.889661,1.821837 0,0.600814 0.368237,1.124108 1.221016,1.124108 0.804313,0 1.385754,-0.474843 1.724922,-1.065967 z m -1.928422,-1.531114 c 0,-0.426384 0.348858,-0.80432 1.172559,-1.182255 l 0.532983,-0.251957 v 1.74431 c -0.242266,0.271337 -0.629891,0.407005 -0.939988,0.407005 -0.474836,0 -0.765554,-0.319787 -0.765554,-0.717103 z m 11.405796,1.676473 c 0.658952,0 1.366367,-0.261648 1.850902,-0.503914 v -1.095038 c 0,-0.348857 -0.377934,-0.436075 -0.532981,-0.145358 -0.494229,0.92061 -0.891532,1.424522 -1.075657,1.424522 -0.09691,0 -0.16474,-0.05812 -0.16474,-0.707419 v -3.672731 h 1.889664 v -0.339175 h -1.889664 v -1.395444 l -1.74431,1.54081 v 0.193809 h 0.503913 l -0.01932,3.110676 c -0.0097,1.240396 0.474836,1.598952 1.182251,1.598952 z m 10.804983,0 c 0.939986,0 1.540808,-0.484534 1.986573,-1.095038 l -0.13567,-0.155049 c -0.339172,0.281027 -0.678345,0.407006 -1.075657,0.407006 -1.162873,0 -1.734618,-0.96906 -1.918734,-1.860598 h 2.335431 c 0.416688,0 0.852777,-0.01935 0.852777,-0.736484 0,-0.920608 -0.707414,-1.734618 -1.870287,-1.734618 -1.434207,0 -2.519557,1.240396 -2.519557,2.742439 0,1.414832 0.978749,2.432342 2.345124,2.432342 z M 86.82745,49.342892 c 0,-0.872159 0.329479,-1.443903 0.910924,-1.443903 0.755861,0 1.027195,1.017518 1.027195,1.77338 h -1.928427 c -0.0097,-0.116288 -0.0097,-0.222886 -0.0097,-0.329477 z"
     id="text8"
     aria-label="c   h   o   c   o   l   a   t   e" />
</svg>
