<?xml version="1.0" encoding="UTF-8" standalone="no"?>
<!-- Created with Inkscape (http://www.inkscape.org/) -->

<svg
   width="108.2153mm"
   height="61.208038mm"
   viewBox="0 0 108.2153 61.208038"
   version="1.1"
   id="svg1"
   sodipodi:docname="bolsoys6.svg"
   inkscape:version="1.4.2 (ebf0e940, 2025-05-08)"
   xmlns:inkscape="http://www.inkscape.org/namespaces/inkscape"
   xmlns:sodipodi="http://sodipodi.sourceforge.net/DTD/sodipodi-0.dtd"
   xmlns="http://www.w3.org/2000/svg"
   xmlns:svg="http://www.w3.org/2000/svg">
  <sodipodi:namedview
     id="namedview1"
     pagecolor="#ffffff"
     bordercolor="#000000"
     borderopacity="0.25"
     inkscape:showpageshadow="2"
     inkscape:pageopacity="0.0"
     inkscape:pagecheckerboard="0"
     inkscape:deskcolor="#d1d1d1"
     inkscape:document-units="mm"
     inkscape:zoom="1.4574376"
     inkscape:cx="161.92803"
     inkscape:cy="110.46785"
     inkscape:window-width="1712"
     inkscape:window-height="953"
     inkscape:window-x="0"
     inkscape:window-y="35"
     inkscape:window-maximized="0"
     inkscape:current-layer="svg1" />
  <defs
     id="defs1" />
  <g
     id="g1"
     transform="matrix(0,1.0171173,-1.069955,0,291.66516,-71.263045)">
    <path
       id="rect1-90-9-2-0-1"
       style="stroke-width:0.79481"
       d="m 96.498589,182.17969 6.807531,-0.0129 c 0,0 -3.3048,4.21083 -3.306946,5.75156 -0.662648,1.59723 -0.376763,2.75809 0.772666,3.73819 -0.27057,1.89091 0.47675,2.43749 1.84855,2.65814 0.55314,2.10676 1.03181,2.18892 2.88825,2.04848 0.58241,2.01052 1.39337,2.16057 3.1681,1.56542 0.97406,1.4368 2.13153,1.68401 3.34353,0.99671 0.74462,1.57795 2.54088,0.95021 3.01342,0.34827 1.23365,0.50663 2.38093,-0.60929 2.38093,-0.60929 v 3.38565 H 96.498589 Z" />
  </g>
  <rect
     style="fill:#000000;fill-opacity:1;stroke:none;stroke-width:0.829418;stroke-dasharray:none;stroke-opacity:1"
     id="rect1-90-9-2-0-7"
     width="21.274055"
     height="21.274055"
     x="52.623299"
     y="26.887333" />
  <rect
     style="fill:#000000;fill-opacity:1;stroke:none;stroke-width:0.829418;stroke-dasharray:none;stroke-opacity:1"
     id="rect1-90-9-2-0-2"
     width="21.274055"
     height="21.274055"
     x="-25.303848"
     y="75.480843"
     transform="rotate(-90)" />
  <rect
     style="fill:#000000;fill-opacity:1;stroke:none;stroke-width:0.829418;stroke-dasharray:none;stroke-opacity:1"
     id="rect1-90-9-2-0-41-2"
     width="21.274055"
     height="21.274055"
     x="52.623299"
     y="4.0297947" />
  <rect
     style="fill:#000000;fill-opacity:1;stroke:none;stroke-width:0.829418;stroke-dasharray:none;stroke-opacity:1"
     id="rect1-90-9-2-0-6"
     width="21.274055"
     height="21.274055"
     x="29.765762"
     y="4.0297947" />
  <rect
     style="fill:#000000;fill-opacity:1;stroke:none;stroke-width:0.829418;stroke-dasharray:none;stroke-opacity:1"
     id="rect1-90-9-2-0-41"
     width="21.274055"
     height="21.274055"
     x="6.9082222"
     y="4.0297918" />
  <path
     d="m 40.682957,9.0021022 c -3.12812,0 -5.524851,2.7079058 -5.524851,5.9916538 0,3.050305 2.069874,5.337786 5.073492,5.337786 3.128119,0 5.415873,-2.474232 5.415873,-5.851356 0,-3.237059 -2.116525,-5.4780838 -4.964514,-5.4780838 z m -1.618369,1.0271398 c 2.443357,0 5.010851,3.127985 5.010851,6.349482 0,1.57184 -0.606787,2.956998 -2.303129,2.956998 -2.56786,0 -4.964514,-3.237159 -4.964514,-6.31859 0,-1.571841 0.622699,-2.98789 2.256792,-2.98789 z"
     style="font-weight:bold;font-size:10.844px;font-family:Gyst;-inkscape-font-specification:'Gyst, Bold';fill:#ffffff;stroke-width:1.05151"
     id="path25" />
  <path
     style="font-weight:bold;font-size:10.844px;font-family:Gyst;-inkscape-font-specification:'Gyst, Bold';fill:#ffffff;stroke-width:1.05151"
     d="m 86.589788,20.339456 c 2.194354,0 3.361562,-1.462901 3.361562,-3.221497 0,-1.260584 -0.606948,-2.334417 -3.268185,-3.937384 -1.836407,-1.104957 -2.863551,-2.100975 -2.863551,-2.754613 0,-0.357943 0.28013,-0.6380731 0.778139,-0.6380731 0.933767,0 2.536733,0.9337671 3.999635,2.2099151 0.435758,0.373507 0.964893,0.108943 0.871515,-0.451321 L 89.173212,9.6166987 C 88.239445,9.1965032 87.181175,8.9941875 86.200719,8.9941875 c -2.707924,0 -3.408249,1.5562775 -3.408249,2.6145475 0,1.431775 1.291711,2.583422 3.532752,3.968509 1.743031,1.089395 2.832426,1.774158 2.832426,2.754613 0,0.482446 -0.264567,0.73145 -0.933767,0.73145 -1.369524,0 -3.345998,-1.01158 -5.042342,-2.645672 -0.404632,-0.404633 -0.980455,-0.155628 -0.887078,0.435758 l 0.326818,2.054287 c 1.22946,0.933766 2.676798,1.431776 3.968509,1.431776 z"
     id="path19" />
  <path
     style="font-weight:bold;font-size:10.844px;font-family:Gyst;-inkscape-font-specification:'Gyst, Bold';fill:#ffffff;stroke-width:1.05151"
     d="m 63.732247,43.196994 c 2.194354,0 3.361563,-1.462901 3.361563,-3.221497 0,-1.260585 -0.606949,-2.334416 -3.268186,-3.937383 -1.836407,-1.104958 -2.863551,-2.100976 -2.863551,-2.754613 0,-0.357944 0.28013,-0.638074 0.778139,-0.638074 0.933767,0 2.536733,0.933767 3.999634,2.209916 0.435759,0.373507 0.964894,0.108942 0.871516,-0.451321 l -0.295691,-1.929785 c -0.933767,-0.420195 -1.992037,-0.622511 -2.972493,-0.622511 -2.707924,0 -3.408249,1.556278 -3.408249,2.614547 0,1.431776 1.291711,2.583422 3.532752,3.968509 1.743031,1.089395 2.832426,1.774157 2.832426,2.754613 0,0.482446 -0.264567,0.73145 -0.933767,0.73145 -1.369524,0 -3.345998,-1.01158 -5.042342,-2.645672 -0.404632,-0.404633 -0.980455,-0.155628 -0.887078,0.435757 l 0.326818,2.054287 c 1.22946,0.933767 2.676798,1.431777 3.968509,1.431777 z"
     id="path19-3" />
  <path
     style="font-weight:bold;font-size:10.844px;font-family:Gyst;-inkscape-font-specification:'Gyst, Bold';fill:#ffffff;stroke-width:1.05151"
     d="m 59.636733,20.106015 h 6.411868 l 0.778139,-1.914222 c 0.249004,-0.622512 -0.357945,-1.198334 -0.996018,-0.606949 -1.634093,1.509591 -2.84799,2.054288 -3.750631,2.054288 -0.09337,0 -0.186754,0 -0.264568,0 V 9.2276293 h -2.17879 z"
     id="path18" />
  <text
     xml:space="preserve"
     style="font-style:normal;font-variant:normal;font-weight:bold;font-stretch:normal;font-size:16.1061px;font-family:Gyst;-inkscape-font-specification:'Gyst, Bold';font-variant-ligatures:normal;font-variant-caps:normal;font-variant-numeric:normal;font-variant-east-asian:normal;text-align:start;writing-mode:lr-tb;direction:ltr;text-anchor:start;fill:#ffffff;stroke-width:1.08824"
     x="12.270512"
     y="20.303946"
     id="text3"><tspan
       sodipodi:role="line"
       style="stroke-width:1.08823"
       x="12.270512"
       y="20.303946"
       id="tspan3">B</tspan></text>
  <rect
     style="fill:#000000;fill-opacity:1;stroke:none;stroke-width:0.829418;stroke-dasharray:none;stroke-opacity:1"
     id="rect1-90-9-2-0-3"
     width="21.274055"
     height="21.274055"
     x="29.765762"
     y="26.887333" />
  <path
     style="font-weight:bold;font-size:10.844px;font-family:Gyst;-inkscape-font-specification:'Gyst, Bold';fill:#ffffff;stroke-width:1.05151"
     d="m 39.19474,42.979115 h 2.178784 v -4.201951 c 0.731458,-1.743031 2.303295,-4.108574 3.672823,-5.851607 0.311255,-0.38907 0.0934,-0.855953 -0.420202,-0.855953 l -1.758596,0.03113 -1.820831,6.131736 -3.128126,-6.131736 h -2.303293 l 3.579441,7.003252 z"
     id="path22" />
  <rect
     style="fill:#000000;fill-opacity:1;stroke:none;stroke-width:0.829418;stroke-dasharray:none;stroke-opacity:1"
     id="rect1-90-9-2-0-49"
     width="21.274055"
     height="21.274055"
     x="6.9082222"
     y="26.887333" />
  <path
     d="m 17.825418,31.85964 c -3.12812,0 -5.52485,2.707907 -5.52485,5.991654 0,3.050306 2.069875,5.337786 5.073492,5.337786 3.128119,0 5.415872,-2.474233 5.415872,-5.851356 0,-3.23706 -2.116526,-5.478084 -4.964514,-5.478084 z m -1.618369,1.02714 c 2.443357,0 5.01128,3.127985 5.01128,6.349482 0,1.57184 -0.607214,2.956998 -2.303558,2.956998 -2.56786,0 -4.964514,-3.237159 -4.964514,-6.31859 0,-1.571841 0.622699,-2.98789 2.256792,-2.98789 z"
     style="font-weight:bold;font-size:10.844px;font-family:Gyst;-inkscape-font-specification:'Gyst, Bold';fill:#ffffff;stroke-width:1.05151"
     id="path26" />
  <text
     xml:space="preserve"
     style="font-style:normal;font-variant:normal;font-weight:bold;font-stretch:normal;font-size:14.6825px;font-family:Gyst;-inkscape-font-specification:'Gyst, Bold';font-variant-ligatures:normal;font-variant-caps:normal;font-variant-numeric:normal;font-variant-east-asian:normal;text-align:start;writing-mode:lr-tb;direction:ltr;text-anchor:start;fill:#ffffff;stroke-width:0.992051"
     x="56.405289"
     y="41.052151"
     id="text27"><tspan
       sodipodi:role="line"
       id="tspan27"
       style="stroke-width:0.992051"
       x="56.405289"
       y="41.052151">'</tspan></text>
  <text
     xml:space="preserve"
     style="font-style:normal;font-variant:normal;font-weight:bold;font-stretch:normal;font-size:9.69219px;font-family:Gyst;-inkscape-font-specification:'Gyst, Bold';font-variant-ligatures:normal;font-variant-caps:normal;font-variant-numeric:normal;font-variant-east-asian:normal;text-align:start;writing-mode:lr-tb;direction:ltr;text-anchor:start;fill:#000000;stroke-width:0.654866"
     x="6.6659212"
     y="56.239487"
     id="text28"><tspan
       sodipodi:role="line"
       id="tspan28"
       style="fill:#000000;stroke-width:0.654865"
       x="6.6659212"
       y="56.239487">c   h   o   c   o   l   a   t   e</tspan></text>
</svg>
