<?xml version="1.0" encoding="UTF-8" standalone="no"?>
<!-- Created with Inkscape (http://www.inkscape.org/) -->

<svg
   width="146.86713mm"
   height="27.625168mm"
   viewBox="0 0 146.86713 27.625168"
   version="1.1"
   id="svg1"
   xmlns="http://www.w3.org/2000/svg"
   xmlns:svg="http://www.w3.org/2000/svg">
  <defs
     id="defs1" />
  <g
     id="layer1"
     transform="translate(-8.4275105,-24.358081)">
    <g
       id="g1"
       transform="matrix(0,0.84974688,-0.89388992,0,318.11958,-57.641295)">
      <path
         id="rect1-90-9-2-0-1"
         style="stroke-width:0.79481"
         d="m 96.498589,182.17969 6.807531,-0.0129 c 0,0 -3.3048,4.21083 -3.306946,5.75156 -0.662648,1.59723 -0.376763,2.75809 0.772666,3.73819 -0.27057,1.89091 0.47675,2.43749 1.84855,2.65814 0.55314,2.10676 1.03181,2.18892 2.88825,2.04848 0.58241,2.01052 1.39337,2.16057 3.1681,1.56542 0.97406,1.4368 2.13153,1.68401 3.34353,0.99671 0.74462,1.57795 2.54088,0.95021 3.01342,0.34827 1.23365,0.50663 2.38093,-0.60929 2.38093,-0.60929 v 3.38565 H 96.498589 Z" />
    </g>
    <g
       id="g9"
       transform="matrix(0.84634906,0,0,0.84634906,30.78015,-66.719597)">
      <rect
         style="fill:#000000;fill-opacity:1;stroke:none;stroke-width:0.818734;stroke-dasharray:none;stroke-opacity:1"
         id="rect1-90-9-2-0-7"
         width="21"
         height="21"
         x="104.31724"
         y="107.61243" />
      <path
         style="font-weight:bold;font-size:13.2459px;font-family:'Bailsun Serif';-inkscape-font-specification:'Bailsun Serif, Bold';fill:#ffffff;stroke-width:1.10266"
         d="m 114.73803,112.62329 c -2.34456,0 -3.61191,1.18812 -3.61191,2.96239 0,3.65943 5.65548,3.54854 5.65548,6.14656 0,0.99803 -0.66535,1.55248 -1.90099,1.55248 -2.24952,0 -3.21587,-1.69505 -3.81784,-4.46734 h -0.17425 l 0.1901,4.60992 c 0.52277,-0.1268 0.99803,-0.14258 1.23565,-0.14258 0.96634,0 1.56832,0.31684 2.7406,0.31684 2.32873,0 3.69109,-1.25149 3.69109,-3.07328 0,-3.6119 -5.73467,-3.67526 -5.73467,-6.17824 0,-0.88714 0.60198,-1.40992 1.72674,-1.40992 1.93269,0 2.72477,1.64754 2.91486,3.81784 h 0.15842 l 0.23762,-4.13467 c -0.47523,0.11085 -0.85545,0.15842 -1.2198,0.15842 -0.71288,0 -1.15645,-0.15842 -2.0911,-0.15842 z"
         id="path13" />
      <path
         style="font-weight:bold;font-size:13.2459px;font-family:'Bailsun Serif';-inkscape-font-specification:'Bailsun Serif, Bold';fill:#ffffff;stroke-width:1.10266"
         d="m 108.32472,117.21737 h 0.19009 c 1.60001,-1.12476 2.01189,-2.26536 2.01189,-3.16832 0,-0.8713 -0.47525,-1.42576 -1.26733,-1.42576 -0.7604,0 -1.28317,0.52278 -1.28317,1.21981 0,1.15644 0.99803,0.99802 0.99803,1.80594 0,0.38021 -0.20593,0.88714 -0.64951,1.56833 z"
         id="path12" />
    </g>
    <g
       id="g6"
       transform="matrix(0.84634906,0,0,0.84634906,-49.266402,-41.993769)">
      <rect
         style="fill:#000000;fill-opacity:1;stroke:none;stroke-width:0.818734;stroke-dasharray:none;stroke-opacity:1"
         id="rect1-90-9-2-0-2"
         width="21"
         height="21"
         x="-99.397736"
         y="133.53194"
         transform="rotate(-90)" />
      <path
         style="font-weight:bold;font-size:13.2459px;font-family:'Bailsun Serif';-inkscape-font-specification:'Bailsun Serif, Bold';fill:#ffffff;stroke-width:1.10266"
         d="m 143.95273,83.408606 c -2.34457,0 -3.6119,1.18811 -3.6119,2.96239 0,3.65942 5.65548,3.54853 5.65548,6.14656 0,0.99802 -0.66535,1.55248 -1.90101,1.55248 -2.24951,0 -3.21585,-1.69506 -3.81785,-4.46734 h -0.17424 l 0.19009,4.60991 c 0.52278,-0.12679 0.99802,-0.14257 1.23566,-0.14257 0.96634,0 1.56831,0.31683 2.7406,0.31683 2.32873,0 3.69111,-1.25149 3.69111,-3.07327 0,-3.61191 -5.73468,-3.67527 -5.73468,-6.17824 0,-0.88714 0.60198,-1.40993 1.72674,-1.40993 1.93269,0 2.72477,1.64754 2.91487,3.81784 h 0.15842 l 0.23762,-4.13466 c -0.47525,0.11085 -0.85545,0.15842 -1.2198,0.15842 -0.71288,0 -1.15644,-0.15842 -2.09111,-0.15842 z"
         id="path8" />
    </g>
    <g
       id="g5"
       transform="matrix(0.84634906,0,0,0.84634906,-42.980808,-41.993769)">
      <rect
         style="fill:#000000;fill-opacity:1;stroke:none;stroke-width:0.818734;stroke-dasharray:none;stroke-opacity:1"
         id="rect1-90-9-2-0-41-2"
         width="21"
         height="21"
         x="104.31724"
         y="78.397736" />
      <path
         style="font-weight:bold;font-size:13.2459px;font-family:'Bailsun Serif';-inkscape-font-specification:'Bailsun Serif, Bold';fill:#ffffff;stroke-width:1.10266"
         d="m 115.72813,93.895781 c -1.37821,0 -1.74257,-0.60199 -1.74257,-1.47328 v -7.06538 c 0,-1.20397 0.47524,-1.60002 1.34653,-1.60002 v -0.19008 h -5.27527 v 0.19008 c 0.87129,0 1.34655,0.39605 1.34655,1.60002 v 7.06538 c 0,1.2198 -0.47526,1.61585 -1.34655,1.61585 v 0.1901 h 9.21985 l 0.30099,-4.08715 h -0.15841 c -0.69703,2.48715 -1.5208,3.75448 -3.69112,3.75448 z"
         id="path7" />
    </g>
    <g
       id="g4"
       transform="matrix(0.84634906,0,0,0.84634906,-36.695228,-41.993769)">
      <rect
         style="fill:#000000;fill-opacity:1;stroke:none;stroke-width:0.818734;stroke-dasharray:none;stroke-opacity:1"
         id="rect1-90-9-2-0-6"
         width="21"
         height="21"
         x="75.102554"
         y="78.397736" />
      <g
         id="g14"
         transform="matrix(1.3873219,0,0,1.3873219,17.006921,-101.49142)">
        <g
           id="g17"
           transform="translate(1.079712e-7,1.315314)">
          <path
             style="font-weight:bold;font-size:13.2459px;font-family:'Bailsun Serif';-inkscape-font-specification:'Bailsun Serif, Bold';fill:#ffffff;stroke-width:0.79481"
             d="m 49.45035,131.96307 c -2.272357,0 -3.962351,1.56438 -3.962351,3.96235 0,2.39796 1.678575,3.95093 3.962351,3.95093 2.272357,0 3.950933,-1.55297 3.950933,-3.95093 0,-2.39797 -1.689995,-3.96235 -3.950933,-3.96235 z"
             id="path5" />
          <path
             style="font-weight:bold;font-size:13.2459px;font-family:'Bailsun Serif';-inkscape-font-specification:'Bailsun Serif, Bold';fill:#000000;stroke-width:0.79481"
             d="m 49.290486,132.19145 c 1.313171,0 2.158168,1.65574 2.158168,4.25925 0,2.32945 -0.833578,3.19728 -1.838439,3.19728 -1.336009,0 -2.169587,-1.66715 -2.169587,-4.2364 0,-2.31803 0.833578,-3.22013 1.849858,-3.22013 z"
             id="path6" />
        </g>
      </g>
    </g>
    <g
       id="g3"
       transform="matrix(0.84634906,0,0,0.84634906,-32.881381,-45.152094)">
      <rect
         style="fill:#000000;fill-opacity:1;stroke:none;stroke-width:0.818734;stroke-dasharray:none;stroke-opacity:1"
         id="rect1-90-9-2-0-41"
         width="21"
         height="21"
         x="48.808338"
         y="82.12944" />
      <g
         id="g13"
         transform="matrix(1.3873219,0,0,1.3873219,0.42032062,-92.886782)">
        <path
           style="font-weight:bold;font-size:13.2459px;font-family:'Bailsun Serif';-inkscape-font-specification:'Bailsun Serif, Bold';fill:#ffffff;stroke-width:0.79481"
           d="m 46.118433,135.44106 c 0,-1.3931 -1.061956,-2.07824 -3.026003,-2.07824 v -0.0228 c 1.758507,-0.0457 2.557829,-0.63946 2.557829,-1.73567 0,-1.07338 -0.902092,-1.72425 -3.06026,-1.72425 h -3.813906 v 0.13702 c 0.628039,0 0.970605,0.28547 0.970605,1.15331 v 5.10424 c 0,0.86783 -0.342566,1.15331 -0.970605,1.15331 v 0.13702 h 3.939514 c 2.34087,0 3.402826,-0.69655 3.402826,-2.12391 z"
           id="path4" />
        <path
           style="font-weight:bold;font-size:13.2459px;font-family:'Bailsun Serif';-inkscape-font-specification:'Bailsun Serif, Bold';fill:#000000;stroke-width:0.79481"
           d="m 43.606279,131.63857 c 0,1.11905 -0.6052,1.58723 -1.552967,1.58723 h -0.445336 v -3.11736 h 0.479593 c 1.01628,0 1.51871,0.4796 1.51871,1.53013 z"
           id="path3" />
        <path
           style="font-weight:bold;font-size:13.2459px;font-family:'Bailsun Serif';-inkscape-font-specification:'Bailsun Serif, Bold';fill:#000000;stroke-width:0.79481"
           d="m 44.074454,135.56667 c 0,1.22182 -0.593782,1.76992 -1.518711,1.76992 -0.662295,0 -0.947767,-0.28547 -0.947767,-0.89067 v -2.90039 h 0.445336 c 1.347428,0 2.021142,0.52526 2.021142,2.02114 z"
           id="text5-9-1-81-7-2" />
      </g>
    </g>
    <g
       id="g8"
       transform="matrix(0.84634906,0,0,0.84634906,37.065732,-66.719597)">
      <rect
         style="fill:#000000;fill-opacity:1;stroke:none;stroke-width:0.818734;stroke-dasharray:none;stroke-opacity:1"
         id="rect1-90-9-2-0-3"
         width="21"
         height="21"
         x="75.102554"
         y="107.61243" />
      <path
         style="font-weight:bold;font-size:13.2459px;font-family:'Bailsun Serif';-inkscape-font-specification:'Bailsun Serif, Bold';fill:#ffffff;stroke-width:1.10266"
         d="m 89.166924,114.0332 c 0,0.42773 -0.174248,0.93466 -0.443568,1.39407 l -1.885149,3.32674 -2.328731,-4.27724 c -0.506928,-0.93466 -0.411882,-1.50497 1.108915,-1.50497 v -0.19009 h -5.845565 v 0.19009 c 0.712876,0.0476 1.156444,0.44358 1.77426,1.50497 l 2.803972,5.00596 v 2.15447 c 0,1.2198 -0.475241,1.61586 -1.346535,1.61586 v 0.19008 h 5.291121 v -0.19008 c -0.871293,0 -1.330705,-0.39606 -1.330705,-1.61586 v -2.45547 l 2.138627,-3.7703 c 0.950495,-1.71091 1.409907,-2.43963 2.328717,-2.43963 v -0.19009 h -3.580207 v 0.19009 c 0.998026,0 1.314848,0.42773 1.314848,1.0614 z"
         id="path11" />
    </g>
    <path
       d="m 10.334431,52.292336 c 0,-2.652579 0.83174,-3.675395 2.180509,-3.675395 1.33753,0 2.146791,1.135214 2.337867,2.697538 h 0.112397 L 15.1338,48.392146 c -0.43835,0.08992 -0.753062,0.112398 -1.022816,0.112398 -0.550748,0 -0.932899,-0.112398 -1.76464,-0.112398 -2.4165441,0 -4.0238271,1.539845 -4.0238271,3.90019 0,2.360346 1.6410022,3.888951 3.9114301,3.888951 0.88794,0 1.382488,-0.202315 2.079352,-0.202315 0.236035,0 0.505788,0.02248 0.820501,0.08992 l 0.247275,-3.282005 h -0.112398 c -0.325952,1.562324 -1.28133,3.169607 -2.742497,3.169607 -1.337529,0 -2.191749,-1.011577 -2.191749,-3.664156 z m 19.354873,-2.506462 v 2.15803 h -3.147127 v -2.15803 c 0,-0.86546 0.337192,-1.146454 0.955378,-1.146454 v -0.134876 h -3.742834 v 0.134876 c 0.618186,0 0.955378,0.280994 0.955378,1.146454 v 5.012925 c 0,0.85422 -0.337192,1.135214 -0.955378,1.135214 v 0.134877 h 3.742834 v -0.134877 c -0.618186,0 -0.955378,-0.280994 -0.955378,-1.135214 v -2.6301 h 3.147127 v 2.6301 c 0,0.85422 -0.337192,1.135214 -0.955378,1.135214 v 0.134877 h 3.742834 v -0.134877 c -0.618186,0 -0.955378,-0.280994 -0.955378,-1.135214 v -5.012925 c 0,-0.86546 0.337192,-1.146454 0.955378,-1.146454 v -0.134876 h -3.742834 v 0.134876 c 0.618186,0 0.955378,0.280994 0.955378,1.146454 z m 15.173692,-1.393728 c -2.236708,0 -3.90019,1.539845 -3.90019,3.90019 0,2.360346 1.652242,3.888951 3.90019,3.888951 2.236709,0 3.888951,-1.528605 3.888951,-3.888951 0,-2.360345 -1.663482,-3.90019 -3.888951,-3.90019 z m -0.157356,0.224795 c 1.29257,0 2.124311,1.629762 2.124311,4.192424 0,2.292907 -0.820501,3.147127 -1.809598,3.147127 -1.31505,0 -2.135551,-1.641002 -2.135551,-4.169944 0,-2.281667 0.820501,-3.169607 1.820838,-3.169607 z m 14.814017,3.675395 c 0,-2.652579 0.831741,-3.675395 2.18051,-3.675395 1.337529,0 2.146791,1.135214 2.337866,2.697538 h 0.112398 l 0.168596,-2.922333 c -0.43835,0.08992 -0.753063,0.112398 -1.022817,0.112398 -0.550747,0 -0.932898,-0.112398 -1.764639,-0.112398 -2.416545,0 -4.023828,1.539845 -4.023828,3.90019 0,2.360346 1.641003,3.888951 3.91143,3.888951 0.88794,0 1.382489,-0.202315 2.079353,-0.202315 0.236034,0 0.505788,0.02248 0.820501,0.08992 l 0.247274,-3.282005 h -0.112397 c -0.325953,1.562324 -1.281331,3.169607 -2.742497,3.169607 -1.33753,0 -2.19175,-1.011577 -2.19175,-3.664156 z m 17.590234,-3.90019 c -2.236708,0 -3.90019,1.539845 -3.90019,3.90019 0,2.360346 1.652242,3.888951 3.90019,3.888951 2.236709,0 3.888951,-1.528605 3.888951,-3.888951 0,-2.360345 -1.663482,-3.90019 -3.888951,-3.90019 z m -0.157356,0.224795 c 1.29257,0 2.124311,1.629762 2.124311,4.192424 0,2.292907 -0.820501,3.147127 -1.809598,3.147127 -1.31505,0 -2.135551,-1.641002 -2.135551,-4.169944 0,-2.281667 0.820501,-3.169607 1.820838,-3.169607 z m 16.556184,7.215914 c -0.977857,0 -1.236371,-0.42711 -1.236371,-1.045296 v -5.012925 c 0,-0.85422 0.337192,-1.135214 0.955378,-1.135214 v -0.134876 h -3.742834 v 0.134876 c 0.618186,0 0.955378,0.280994 0.955378,1.135214 v 5.012925 c 0,0.86546 -0.337192,1.146454 -0.955378,1.146454 v 0.134877 h 6.54153 l 0.213555,-2.899854 h -0.112398 c -0.494548,1.76464 -1.079015,2.663819 -2.61886,2.663819 z m 14.162101,-5.012925 1.07901,2.394065 h -2.12431 z m -1.71968,4.428458 c 0,-0.292233 0.13487,-0.708103 0.29223,-1.112734 l 0.29223,-0.696864 h 2.30415 l 0.61819,1.337529 c 0.28099,0.606946 0.31471,1.157694 -0.82051,1.157694 v 0.134877 h 4.12499 v -0.134877 c -0.55075,-0.03372 -0.88794,-0.370912 -1.24761,-1.157694 l -2.88861,-6.271775 h -0.1124 l -2.49522,5.63111 c -0.56199,1.225132 -0.83175,1.764639 -1.56233,1.798359 v 0.134877 h 2.40531 v -0.134877 c -0.61819,0 -0.91042,-0.236035 -0.91042,-0.685625 z m 19.71455,-6.51905 c 1.48365,0 2.05687,1.056536 2.5177,2.517702 h 0.1124 l -0.20231,-2.854894 c -1.00034,0.112398 -1.8096,0.112398 -3.16961,0.112398 h -0.66315 c -1.36,0 -2.16927,0 -3.1696,-0.112398 l -0.20232,2.854894 h 0.1124 c 0.46083,-1.461166 1.03406,-2.517702 2.5177,-2.517702 h 0.15736 v 6.058221 c 0,0.86546 -0.33719,1.146454 -0.95538,1.146454 v 0.134877 h 3.74283 v -0.134877 c -0.61818,0 -0.95537,-0.280994 -0.95537,-1.146454 v -6.058221 z m 14.71287,0 c 1.47241,0 2.04563,1.011577 2.50646,2.472744 h 0.1124 l -0.19108,-2.809936 c -1.00033,0.112398 -1.5286,0.112398 -2.87737,0.112398 h -3.34944 v 0.134876 c 0.61818,0 0.95538,0.280994 0.95538,1.135214 v 5.012925 c 0,0.86546 -0.3372,1.146454 -0.95538,1.146454 v 0.134877 h 6.53029 l 0.21355,-2.899854 h -0.1124 c -0.4833,1.76464 -1.25885,2.675059 -2.78745,2.675059 -0.79802,0 -1.05654,-0.269754 -1.05654,-0.88794 v -2.742497 h 0.30348 c 0.8767,0 1.53984,0.359672 1.70844,1.641003 h 0.13487 v -3.428122 h -0.13487 c -0.3372,1.281331 -0.83174,1.562324 -1.70844,1.562324 h -0.30348 V 49.52736 c 0,-0.517028 0.26976,-0.798022 1.01158,-0.798022 z"
       id="text1"
       style="font-weight:bold;font-size:13.0381px;font-family:'Bailsun Serif';-inkscape-font-specification:'Bailsun Serif, Bold';stroke:#000000;stroke-width:0.202339"
       transform="scale(1.0827037,0.92361372)"
       aria-label="C   H   O   C   O   L   A   T   E" />
    <g
       id="g7"
       transform="matrix(0.84634906,0,0,0.84634906,43.351309,-66.719597)">
      <rect
         style="fill:#000000;fill-opacity:1;stroke:none;stroke-width:0.818734;stroke-dasharray:none;stroke-opacity:1"
         id="rect1-90-9-2-0-49"
         width="21"
         height="21"
         x="45.887875"
         y="107.61243" />
      <g
         id="g15"
         transform="matrix(1.3873219,0,0,1.3873219,-12.207759,-70.451964)">
        <path
           style="font-weight:bold;font-size:13.2459px;font-family:'Bailsun Serif';-inkscape-font-specification:'Bailsun Serif, Bold';fill:#ffffff;stroke-width:0.79481"
           d="m 49.45035,131.96307 c -2.272357,0 -3.962351,1.56438 -3.962351,3.96235 0,2.39796 1.678575,3.95093 3.962351,3.95093 2.272357,0 3.950933,-1.55297 3.950933,-3.95093 0,-2.39797 -1.689995,-3.96235 -3.950933,-3.96235 z"
           id="path14" />
        <path
           style="font-weight:bold;font-size:13.2459px;font-family:'Bailsun Serif';-inkscape-font-specification:'Bailsun Serif, Bold';fill:#000000;stroke-width:0.79481"
           d="m 49.290486,132.19145 c 1.313171,0 2.158168,1.65574 2.158168,4.25925 0,2.32945 -0.833578,3.19728 -1.838439,3.19728 -1.336009,0 -2.169587,-1.66715 -2.169587,-4.2364 0,-2.31803 0.833578,-3.22013 1.849858,-3.22013 z"
           id="path15" />
      </g>
    </g>
  </g>
</svg>
