<?xml version="1.0" encoding="UTF-8" standalone="no"?>
<!-- Created with Inkscape (http://www.inkscape.org/) -->

<svg
   width="128.14156mm"
   height="71.007957mm"
   viewBox="0 0 128.14156 71.007957"
   version="1.1"
   id="svg1"
   sodipodi:docname="bolsoys2.svg"
   inkscape:version="1.4.2 (ebf0e940, 2025-05-08)"
   xmlns:inkscape="http://www.inkscape.org/namespaces/inkscape"
   xmlns:sodipodi="http://sodipodi.sourceforge.net/DTD/sodipodi-0.dtd"
   xmlns="http://www.w3.org/2000/svg"
   xmlns:svg="http://www.w3.org/2000/svg">
  <sodipodi:namedview
     id="namedview1"
     pagecolor="#ffffff"
     bordercolor="#000000"
     borderopacity="0.25"
     inkscape:showpageshadow="2"
     inkscape:pageopacity="0.0"
     inkscape:pagecheckerboard="0"
     inkscape:deskcolor="#d1d1d1"
     inkscape:document-units="mm"
     inkscape:zoom="0.83354864"
     inkscape:cx="209.94576"
     inkscape:cy="155.35986"
     inkscape:window-width="896"
     inkscape:window-height="878"
     inkscape:window-x="0"
     inkscape:window-y="35"
     inkscape:window-maximized="0"
     inkscape:current-layer="layer1" />
  <defs
     id="defs1" />
  <g
     id="layer1"
     transform="translate(-36.437629,-24.533218)">
    <g
       id="g1"
       transform="matrix(0,1.225061,-1.2887011,0,390.4073,-55.939476)">
      <path
         id="rect1-90-9-2-0-1"
         style="stroke-width:0.79481"
         d="m 96.498589,182.17969 6.807531,-0.0129 c 0,0 -3.3048,4.21083 -3.306946,5.75156 -0.662648,1.59723 -0.376763,2.75809 0.772666,3.73819 -0.27057,1.89091 0.47675,2.43749 1.84855,2.65814 0.55314,2.10676 1.03181,2.18892 2.88825,2.04848 0.58241,2.01052 1.39337,2.16057 3.1681,1.56542 0.97406,1.4368 2.13153,1.68401 3.34353,0.99671 0.74462,1.57795 2.54088,0.95021 3.01342,0.34827 1.23365,0.50663 2.38093,-0.60929 2.38093,-0.60929 v 3.38565 H 96.498589 Z" />
    </g>
    <g
       id="g9"
       transform="matrix(1.2201624,0,0,1.2201624,-25.527873,-69.027454)">
      <rect
         style="fill:#000000;fill-opacity:1;stroke:none;stroke-width:0.818734;stroke-dasharray:none;stroke-opacity:1"
         id="rect1-90-9-2-0-7"
         width="21"
         height="21"
         x="104.31724"
         y="107.61243" />
    </g>
    <g
       id="g6"
       transform="matrix(1.2201624,0,0,1.2201624,-32.905305,-61.650033)">
      <rect
         style="fill:#000000;fill-opacity:1;stroke:none;stroke-width:0.818734;stroke-dasharray:none;stroke-opacity:1"
         id="rect1-90-9-2-0-2"
         width="21"
         height="21"
         x="-99.397736"
         y="133.53194"
         transform="rotate(-90)" />
    </g>
    <g
       id="g5"
       transform="matrix(1.2201624,0,0,1.2201624,-25.527873,-61.650033)">
      <rect
         style="fill:#000000;fill-opacity:1;stroke:none;stroke-width:0.818734;stroke-dasharray:none;stroke-opacity:1"
         id="rect1-90-9-2-0-41-2"
         width="21"
         height="21"
         x="104.31724"
         y="78.397736" />
    </g>
    <g
       id="g4"
       transform="matrix(1.2201624,0,0,1.2201624,-18.150459,-61.650033)">
      <rect
         style="fill:#000000;fill-opacity:1;stroke:none;stroke-width:0.818734;stroke-dasharray:none;stroke-opacity:1"
         id="rect1-90-9-2-0-6"
         width="21"
         height="21"
         x="75.102554"
         y="78.397736" />
    </g>
    <g
       id="g3"
       transform="matrix(1.2201624,0,0,1.2201624,-14.33649,-66.203319)">
      <rect
         style="fill:#000000;fill-opacity:1;stroke:none;stroke-width:0.818734;stroke-dasharray:none;stroke-opacity:1"
         id="rect1-90-9-2-0-41"
         width="21"
         height="21"
         x="48.808338"
         y="82.12944" />
    </g>
    <g
       id="g8"
       transform="matrix(1.2201624,0,0,1.2201624,-18.150459,-69.027454)">
      <rect
         style="fill:#000000;fill-opacity:1;stroke:none;stroke-width:0.818734;stroke-dasharray:none;stroke-opacity:1"
         id="rect1-90-9-2-0-3"
         width="21"
         height="21"
         x="75.102554"
         y="107.61243" />
    </g>
    <g
       id="g7"
       transform="matrix(1.2201624,0,0,1.2201624,-10.77305,-69.027454)">
      <rect
         style="fill:#000000;fill-opacity:1;stroke:none;stroke-width:0.818734;stroke-dasharray:none;stroke-opacity:1"
         id="rect1-90-9-2-0-49"
         width="21"
         height="21"
         x="45.887875"
         y="107.61243" />
    </g>
  </g>
</svg>
