<?xml version="1.0" encoding="UTF-8" standalone="no"?>
<!-- Created with Inkscape (http://www.inkscape.org/) -->

<svg
   width="124.94053mm"
   height="29.033173mm"
   viewBox="0 0 124.94053 29.033173"
   version="1.1"
   id="svg1"
   xmlns="http://www.w3.org/2000/svg"
   xmlns:svg="http://www.w3.org/2000/svg">
  <defs
     id="defs1" />
  <g
     id="layer1"
     transform="translate(-28.590519,-151.34235)">
    <rect
       style="fill:#000000;fill-opacity:1;stroke:none;stroke-width:0.727062;stroke-dasharray:none;stroke-opacity:1"
       id="rect1-99-2-2-3-8-0-5-8"
       width="19.13327"
       height="18.176607"
       x="134.23209"
       y="151.34425" />
    <rect
       style="fill:#cccccc;fill-opacity:1;stroke:none;stroke-width:0.564933;stroke-dasharray:none;stroke-opacity:1"
       id="rect1-99-2-2-3-8-7-6"
       width="14.866632"
       height="14.123302"
       x="82.752586"
       y="155.39757" />
    <rect
       style="fill:#000000;fill-opacity:1;stroke:none;stroke-width:0.631084;stroke-dasharray:none;stroke-opacity:1"
       id="rect1-6-2-7-0-4-7-3"
       width="16.607452"
       height="15.777081"
       x="65.258774"
       y="153.74379" />
    <rect
       style="fill:#cccccc;fill-opacity:1;stroke:none;stroke-width:0.578472;stroke-dasharray:none;stroke-opacity:1"
       id="rect1-9-5-1-7-2-3-2"
       width="15.22292"
       height="14.461775"
       x="49.149506"
       y="155.0591" />
    <rect
       style="fill:#000000;fill-opacity:1;stroke:none;stroke-width:0.727141;stroke-dasharray:none;stroke-opacity:1"
       id="rect1-90-9-2-0-9-6"
       width="19.135303"
       height="18.178541"
       x="29.127846"
       y="151.34235" />
    <path
       style="font-weight:bold;font-size:13.2459px;font-family:'Bailsun Serif';-inkscape-font-specification:'Bailsun Serif, Bold';fill:#000000;stroke-width:0.727141"
       d="m 39.755843,162.24048 c 0,1.02377 -0.553675,1.4521 -1.420752,1.4521 h -0.407422 v -2.85196 h 0.438762 c 0.929756,0 1.389412,0.43877 1.389412,1.39986 z"
       id="path3-6-3" />
    <path
       style="font-weight:bold;font-size:13.2459px;font-family:'Bailsun Serif';-inkscape-font-specification:'Bailsun Serif, Bold';fill:#000000;stroke-width:0.727141"
       d="m 40.184158,165.83416 c 0,1.11779 -0.543228,1.61924 -1.389412,1.61924 -0.60591,0 -0.867077,-0.26117 -0.867077,-0.81485 v -2.65346 h 0.407422 c 1.232711,0 1.849067,0.48054 1.849067,1.84907 z"
       id="text5-9-1-81-7-2-7-1" />
    <rect
       style="fill:#cccccc;fill-opacity:1;stroke:none;stroke-width:0.567958;stroke-dasharray:none;stroke-opacity:1"
       id="rect1-1-3-6-9-9-4-4"
       width="14.946254"
       height="14.198942"
       x="118.39948"
       y="155.32191" />
    <rect
       style="fill:#000000;fill-opacity:1;stroke:none;stroke-width:0.722288;stroke-dasharray:none;stroke-opacity:1"
       id="rect1-3-7-3-9-3-9-1"
       width="19.007553"
       height="18.057175"
       x="98.505577"
       y="151.4637" />
    <path
       d="m 143.86449,158.81237 c -2.1506,0 -2.70657,1.23622 -2.70657,2.07668 0,1.1371 1.02572,2.05151 2.80552,3.15153 1.3843,0.86519 2.24934,1.40925 2.24934,2.18792 0,0.38315 -0.21,0.58076 -0.74148,0.58076 -1.08766,0 -2.65736,-0.80347 -4.00458,-2.10125 -0.32135,-0.32135 -0.77878,-0.12334 -0.70462,0.34634 l 0.25967,1.63138 c 0.97642,0.74159 2.126,1.13696 3.15187,1.13696 1.74273,0 2.66972,-1.16183 2.66972,-2.55849 0,-1.00114 -0.48215,-1.85391 -2.59568,-3.12696 -1.45845,-0.87755 -2.27425,-1.66846 -2.27425,-2.18757 0,-0.28428 0.22245,-0.50672 0.61796,-0.50672 0.74159,0 2.01462,0.7414 3.17644,1.75491 0.34608,0.29663 0.7665,0.0867 0.69234,-0.35829 l -0.23477,-1.53277 c -0.74158,-0.33372 -1.58225,-0.49443 -2.36091,-0.49443 z"
       style="font-weight:bold;font-size:18.7183px;font-family:Gyst;-inkscape-font-specification:'Gyst, Bold';fill:#cccccc;stroke-width:0.835108"
       id="path8" />
    <path
       d="m 138.54858,158.40684 0.53128,3.6214 h 0.28425 l 0.53162,-3.6214 z"
       style="font-weight:bold;font-size:18.7183px;font-family:Gyst;-inkscape-font-specification:'Gyst, Bold';fill:#cccccc;stroke-width:0.835108"
       id="path7" />
    <path
       d="m 129.22683,159.15838 -1.39663,0.0249 -1.4461,4.86958 -2.48444,-4.86958 h -1.82929 l 2.84307,5.56192 v 3.07749 h 1.73033 v -3.33716 c 0.58091,-1.3843 1.82911,-3.26315 2.91677,-4.64745 0.2472,-0.30899 0.0742,-0.67971 -0.33371,-0.67971 z"
       style="font-weight:bold;font-size:18.7183px;font-family:Gyst;-inkscape-font-specification:'Gyst, Bold';fill:#000000;stroke-width:0.835108"
       id="path6" />
    <path
       d="m 108.23183,158.82465 c -2.48432,0 -4.38778,2.15078 -4.38778,4.75869 0,2.42252 1.64406,4.23935 4.0295,4.23935 2.48432,0 4.3011,-1.96504 4.3011,-4.64711 0,-2.57084 -1.68098,-4.35093 -3.94282,-4.35093 z m -1.28539,0.81587 c 1.94049,0 3.98002,2.48444 3.98002,5.04292 0,1.24834 -0.48207,2.34829 -1.82929,2.34829 -2.03936,0 -3.94283,-2.57078 -3.94283,-5.01801 0,-1.24834 0.49433,-2.3732 1.7921,-2.3732 z"
       style="font-weight:bold;font-size:18.7183px;font-family:Gyst;-inkscape-font-specification:'Gyst, Bold';fill:#cccccc;stroke-width:0.835108"
       id="path5" />
    <path
       d="m 90.251838,158.81237 c -2.150606,0 -2.706919,1.23622 -2.706919,2.07668 0,1.1371 1.026059,2.05151 2.805873,3.15153 1.384297,0.86519 2.249336,1.40925 2.249336,2.18792 0,0.38315 -0.210003,0.58076 -0.741476,0.58076 -1.087662,0 -2.657366,-0.80347 -4.004585,-2.10125 -0.321355,-0.32135 -0.778783,-0.12367 -0.704624,0.346 l 0.25967,1.63172 c 0.976425,0.74159 2.125667,1.13696 3.15153,1.13696 1.742731,0 2.669727,-1.16183 2.669727,-2.55849 0,-1.00114 -0.481811,-1.85391 -2.595343,-3.12696 -1.458456,-0.87755 -2.274244,-1.66846 -2.274244,-2.18757 0,-0.28428 0.222437,-0.50672 0.617954,-0.50672 0.741589,0 2.014618,0.7414 3.176438,1.75491 0.346073,0.29663 0.766159,0.0867 0.692,-0.35829 l -0.234758,-1.53277 c -0.741596,-0.33372 -1.581914,-0.49443 -2.360579,-0.49443 z"
       style="font-weight:bold;font-size:18.7183px;font-family:Gyst;-inkscape-font-specification:'Gyst, Bold';fill:#000000;stroke-width:0.835108"
       id="path4" />
    <path
       d="m 70.68479,159.18328 v 8.63941 h 5.09206 l 0.617953,-1.52015 c 0.197757,-0.49439 -0.284201,-0.95183 -0.790952,-0.48215 -1.297779,1.1989 -2.262002,1.63139 -2.978871,1.63139 h -0.209851 v -8.2685 z"
       style="font-weight:bold;font-size:18.7183px;font-family:Gyst;-inkscape-font-specification:'Gyst, Bold';fill:#cccccc;stroke-width:0.835108"
       id="path3" />
    <path
       d="m 56.983443,158.82465 c -2.484318,0 -4.387777,2.15078 -4.387777,4.75869 0,2.42252 1.643712,4.23935 4.029152,4.23935 2.484318,0 4.301448,-1.96504 4.301448,-4.64711 0,-2.57084 -1.680981,-4.35093 -3.942823,-4.35093 z m -1.285385,0.81587 c 1.940488,0 3.979676,2.48444 3.979676,5.04292 0,1.24834 -0.482075,2.34829 -1.829293,2.34829 -2.039366,0 -3.942823,-2.57078 -3.942823,-5.01801 0,-1.24834 0.494662,-2.3732 1.79244,-2.3732 z"
       style="font-weight:bold;font-size:18.7183px;font-family:Gyst;-inkscape-font-specification:'Gyst, Bold';fill:#000000;stroke-width:0.835108"
       id="path2" />
    <path
       d="m 35.587134,159.18328 v 8.63941 h 2.743768 c 2.039365,0 3.47296,-0.97659 3.47296,-2.42268 0,-1.03823 -0.865079,-2.00218 -2.410053,-2.18758 1.137101,-0.27192 1.952815,-1.00115 1.952815,-2.00229 0,-1.12474 -0.951599,-2.02686 -3.29996,-2.02686 z m 2.163008,0.38319 c 0.716868,0 1.730337,0.46937 1.730337,1.94019 0,1.58205 -1.186809,1.58225 -1.458724,1.58225 -0.296635,0 -0.531246,-0.0248 -0.704283,-0.0372 v -3.47297 c 0.111238,-0.0123 0.247273,-0.0123 0.43267,-0.0123 z m 0.135806,3.89335 c 0.951704,0 2.014576,0.66724 2.014576,2.19986 0,1.76745 -1.37179,1.76753 -1.693144,1.76753 -0.370794,0 -0.655072,-0.0123 -0.889908,-0.0495 v -3.89334 c 0.148317,-0.0123 0.33364,-0.0246 0.568476,-0.0246 z"
       style="font-weight:bold;font-size:18.7183px;font-family:Gyst;-inkscape-font-specification:'Gyst, Bold';fill:#cccccc;stroke-width:0.835108"
       id="path1" />
    <path
       style="font-weight:bold;font-size:13.4707px;font-family:Gyst;-inkscape-font-specification:'Gyst, Bold';stroke-width:0.910172"
       d="m 31.863899,180.36205 c 1.320129,0 2.020605,-0.75436 2.599846,-1.53566 l -0.18859,-0.21553 c -0.350238,0.28288 -0.808242,0.48494 -1.34707,0.48494 -1.764662,0 -2.977025,-2.07448 -2.977025,-3.69097 0,-0.79477 0.323297,-1.49525 1.131539,-1.49525 0.57924,0 1.400953,0.37718 2.397784,1.61649 0.336768,0.41759 0.875596,0.17512 0.794772,-0.33677 l -0.242473,-1.57607 c -0.363709,-0.25595 -1.145009,-0.45801 -1.845486,-0.45801 -1.993663,0 -3.596677,1.68384 -3.596677,3.82568 0,1.93978 1.320129,3.38115 3.25991,3.38115 z m 16.501584,-4.60698 v 4.40492 h 1.751191 v -4.28368 c 0,-1.73772 -0.76783,-2.72109 -1.858957,-2.72109 -0.902537,0 -1.805074,0.70048 -2.397785,1.60302 v -4.14898 l -1.751191,0.26942 v 9.29478 h 1.751191 v -5.02457 c 0.471475,-0.49842 1.010303,-0.80824 1.522189,-0.80824 0.673535,0 0.983362,0.55229 0.983362,1.42789 z m 14.534852,4.60698 c 2.020605,0 3.47544,-1.57607 3.47544,-3.71791 0,-2.06102 -1.36054,-3.48892 -3.206026,-3.48892 -2.020605,0 -3.556265,1.72425 -3.556265,3.81221 0,1.93978 1.333599,3.40809 3.286851,3.40809 z m 1.212363,-0.7813 c -1.495248,0 -3.219498,-2.54596 -3.219498,-4.29716 0,-0.80824 0.363709,-1.30665 1.023773,-1.30665 1.481778,0 3.206027,2.55943 3.206027,4.31062 0,0.79477 -0.363709,1.29319 -1.010302,1.29319 z m 14.588764,0.7813 c 1.320129,0 2.020605,-0.75436 2.599845,-1.53566 l -0.18859,-0.21553 c -0.350238,0.28288 -0.808242,0.48494 -1.34707,0.48494 -1.764661,0 -2.977024,-2.07448 -2.977024,-3.69097 0,-0.79477 0.323296,-1.49525 1.131538,-1.49525 0.57924,0 1.400953,0.37718 2.397785,1.61649 0.336768,0.41759 0.875596,0.17512 0.794771,-0.33677 l -0.242472,-1.57607 c -0.363709,-0.25595 -1.14501,-0.45801 -1.845486,-0.45801 -1.993664,0 -3.596677,1.68384 -3.596677,3.82568 0,1.93978 1.320128,3.38115 3.259909,3.38115 z m 14.912053,0 c 2.020605,0 3.475441,-1.57607 3.475441,-3.71791 0,-2.06102 -1.360541,-3.48892 -3.206027,-3.48892 -2.020605,0 -3.556265,1.72425 -3.556265,3.81221 0,1.93978 1.3336,3.40809 3.286851,3.40809 z m 1.212363,-0.7813 c -1.495248,0 -3.219497,-2.54596 -3.219497,-4.29716 0,-0.80824 0.363709,-1.30665 1.023773,-1.30665 1.481777,0 3.206027,2.55943 3.206027,4.31062 0,0.79477 -0.363709,1.29319 -1.010303,1.29319 z m 11.935032,0.57924 h 1.75119 v -9.5642 l -1.75119,0.28289 z m 15.73372,0 h 1.76467 l -0.33677,-1.81855 0.0269,-2.30349 c 0.0269,-2.19572 -1.05071,-2.88273 -2.41125,-2.88273 -0.8756,0 -1.99367,0.28289 -2.55944,0.5523 l -0.21553,1.37401 c -0.0808,0.5523 0.44453,0.79478 0.82171,0.37718 1.23931,-1.41442 1.79161,-1.89936 2.19573,-1.89936 0.25594,0 0.40412,0.18859 0.40412,1.07765 v 0.92948 l -1.4279,0.66006 c -1.96672,0.92948 -2.62678,1.57608 -2.62678,2.5325 0,0.83518 0.51188,1.5626 1.69731,1.5626 1.11806,0 1.92631,-0.66007 2.39778,-1.48178 z m -2.68066,-2.12837 c 0,-0.59271 0.48494,-1.11807 1.62995,-1.64343 l 0.74089,-0.35024 v 2.42473 c -0.33677,0.37718 -0.8756,0.56577 -1.30666,0.56577 -0.66006,0 -1.06418,-0.44453 -1.06418,-0.99683 z m 15.85497,2.33043 c 0.916,0 1.89936,-0.36371 2.5729,-0.70048 v -1.52219 c 0,-0.48494 -0.52536,-0.60618 -0.74089,-0.20206 -0.68701,1.27972 -1.2393,1.9802 -1.49525,1.9802 -0.1347,0 -0.229,-0.0808 -0.229,-0.98337 v -5.10539 h 2.62679 v -0.47148 h -2.62679 v -1.93978 l -2.42473,2.14185 v 0.26941 h 0.70048 l -0.0269,4.32409 c -0.0135,1.72425 0.66006,2.22267 1.64343,2.22267 z m 15.01979,0 c 1.30666,0 2.14184,-0.67354 2.76149,-1.52219 l -0.18859,-0.21553 c -0.47147,0.39065 -0.94295,0.56577 -1.49525,0.56577 -1.61648,0 -2.41125,-1.34707 -2.66719,-2.58638 h 3.24643 c 0.57924,0 1.18543,-0.0269 1.18543,-1.02377 0,-1.27972 -0.98336,-2.41126 -2.59985,-2.41126 -1.99366,0 -3.50238,1.72425 -3.50238,3.81221 0,1.96673 1.36054,3.38115 3.25991,3.38115 z m -1.68384,-4.67433 c 0,-1.21237 0.458,-2.00714 1.26625,-2.00714 1.05071,0 1.42789,1.41443 1.42789,2.46514 h -2.68067 c -0.0135,-0.16165 -0.0135,-0.30983 -0.0135,-0.458 z"
       id="text8"
       aria-label="c   h   o   c   o   l   a   t   e" />
  </g>
</svg>
